<?xml version="1.0" encoding="UTF-8"?>
<svg xmlns="http://www.w3.org/2000/svg" xmlns:xlink="http://www.w3.org/1999/xlink" width="600" height="400" viewBox="0 0 600 400">
<defs>
<g>
<g id="glyph-0-0">
<path d="M 5.621094 -4.292969 C 6.003906 -5.03125 6.074219 -5.171875 6.074219 -5.257812 C 6.074219 -5.375 5.972656 -5.460938 5.855469 -5.460938 C 5.714844 -5.460938 5.691406 -5.40625 5.203125 -4.480469 C 4.90625 -3.917969 4.683594 -3.539062 4.253906 -2.808594 C 4.082031 -2.511719 3.867188 -2.160156 3.484375 -1.5625 C 3.132812 -2.175781 2.964844 -2.457031 2.675781 -2.957031 C 2.535156 -3.195312 2.503906 -3.25 2.402344 -3.25 C 2.347656 -3.25 2.300781 -3.210938 2.191406 -3.09375 C 2.085938 -2.980469 2.03125 -2.878906 2.03125 -2.808594 C 2.03125 -2.738281 2.0625 -2.660156 2.148438 -2.527344 C 2.464844 -2.03125 2.644531 -1.71875 2.894531 -1.304688 C 3.140625 -0.894531 3.164062 -0.863281 3.195312 -0.824219 C 3.242188 -0.769531 3.328125 -0.722656 3.390625 -0.722656 C 3.5625 -0.722656 3.820312 -0.964844 4.113281 -1.460938 C 4.277344 -1.734375 4.433594 -2.015625 4.828125 -2.769531 C 5.195312 -3.460938 5.382812 -3.828125 5.621094 -4.292969 Z "/>
</g>
<g id="glyph-0-1">
<rect x="0" y="0" width="0" height="0" mask="url(#mask-0)"/>
</g>
<g id="glyph-0-2">
<path d="M 3.507812 -3.0625 C 3.804688 -2.292969 4.207031 -1.59375 4.765625 -0.988281 C 4.253906 -0.582031 3.65625 -0.242188 3.023438 0 C 2.894531 0.046875 2.816406 0.15625 2.816406 0.273438 C 2.816406 0.3125 2.824219 0.351562 2.839844 0.390625 C 2.894531 0.503906 2.988281 0.566406 3.09375 0.566406 C 3.140625 0.566406 3.195312 0.558594 3.242188 0.535156 C 3.949219 0.265625 4.605469 -0.132812 5.164062 -0.605469 C 5.707031 -0.132812 6.339844 0.242188 7.054688 0.519531 C 7.101562 0.542969 7.15625 0.550781 7.195312 0.550781 C 7.320312 0.550781 7.417969 0.472656 7.472656 0.359375 C 7.488281 0.3125 7.496094 0.273438 7.496094 0.226562 C 7.496094 0.109375 7.425781 0 7.304688 -0.046875 C 6.632812 -0.296875 6.058594 -0.605469 5.585938 -0.988281 C 6.136719 -1.53125 6.570312 -2.15625 6.835938 -2.792969 C 6.882812 -2.902344 6.90625 -3.011719 6.90625 -3.109375 C 6.90625 -3.382812 6.742188 -3.59375 6.378906 -3.59375 L 5.171875 -3.59375 L 5.171875 -5.0625 L 6.632812 -5.0625 C 6.734375 -5.0625 6.78125 -5.039062 6.78125 -4.984375 C 6.78125 -4.960938 6.773438 -4.9375 6.757812 -4.90625 C 6.679688 -4.730469 6.523438 -4.511719 6.386719 -4.324219 C 6.347656 -4.269531 6.324219 -4.207031 6.324219 -4.152344 C 6.324219 -4.074219 6.371094 -3.996094 6.441406 -3.949219 C 6.492188 -3.910156 6.554688 -3.894531 6.609375 -3.894531 C 6.703125 -3.894531 6.796875 -3.941406 6.875 -4.042969 C 7.0625 -4.277344 7.25 -4.582031 7.355469 -4.882812 C 7.386719 -4.976562 7.402344 -5.0625 7.402344 -5.140625 C 7.402344 -5.421875 7.203125 -5.609375 6.828125 -5.609375 L 5.171875 -5.609375 L 5.171875 -6.371094 C 5.171875 -6.515625 5.0625 -6.59375 4.882812 -6.59375 C 4.707031 -6.59375 4.597656 -6.515625 4.597656 -6.371094 L 4.597656 -5.609375 L 3.3125 -5.609375 C 2.847656 -5.609375 2.613281 -5.375 2.613281 -4.90625 L 2.613281 -4.246094 C 2.613281 -1.929688 2.402344 -0.847656 1.796875 0.09375 C 1.757812 0.15625 1.734375 0.21875 1.734375 0.28125 C 1.734375 0.375 1.78125 0.457031 1.882812 0.511719 C 1.9375 0.542969 1.992188 0.558594 2.054688 0.558594 C 2.148438 0.558594 2.238281 0.503906 2.308594 0.398438 C 2.792969 -0.390625 3.085938 -1.398438 3.179688 -3.0625 Z M 3.195312 -3.59375 C 3.203125 -3.78125 3.203125 -3.972656 3.203125 -4.175781 L 3.203125 -4.757812 C 3.203125 -5 3.28125 -5.0625 3.492188 -5.0625 L 4.597656 -5.0625 L 4.597656 -3.59375 Z M 6.136719 -3.0625 C 6.222656 -3.0625 6.261719 -3.03125 6.261719 -2.964844 C 6.261719 -2.933594 6.253906 -2.902344 6.238281 -2.855469 C 6.027344 -2.316406 5.652344 -1.804688 5.171875 -1.34375 C 4.691406 -1.835938 4.316406 -2.417969 4.066406 -3.0625 Z M 2.078125 -5.5625 C 1.804688 -5.847656 1.421875 -6.175781 1.128906 -6.371094 C 1.074219 -6.410156 1.011719 -6.425781 0.957031 -6.425781 C 0.863281 -6.425781 0.777344 -6.378906 0.707031 -6.308594 C 0.660156 -6.246094 0.628906 -6.175781 0.628906 -6.105469 C 0.628906 -6.027344 0.667969 -5.949219 0.738281 -5.902344 C 1.027344 -5.699219 1.34375 -5.429688 1.625 -5.140625 C 1.703125 -5.0625 1.789062 -5.023438 1.875 -5.023438 C 1.953125 -5.023438 2.039062 -5.0625 2.101562 -5.132812 C 2.15625 -5.1875 2.175781 -5.257812 2.175781 -5.328125 C 2.175781 -5.414062 2.148438 -5.492188 2.078125 -5.5625 Z M 1.75 -3.664062 C 1.4375 -3.949219 1.066406 -4.238281 0.714844 -4.449219 C 0.667969 -4.480469 0.613281 -4.496094 0.558594 -4.496094 C 0.472656 -4.496094 0.390625 -4.449219 0.320312 -4.371094 C 0.28125 -4.316406 0.257812 -4.246094 0.257812 -4.183594 C 0.257812 -4.097656 0.296875 -4.019531 0.367188 -3.972656 C 0.667969 -3.78125 1.035156 -3.5 1.34375 -3.210938 C 1.40625 -3.15625 1.484375 -3.125 1.5625 -3.125 C 1.648438 -3.125 1.734375 -3.164062 1.796875 -3.242188 C 1.84375 -3.296875 1.867188 -3.359375 1.867188 -3.421875 C 1.867188 -3.507812 1.820312 -3.601562 1.75 -3.664062 Z M 1.726562 -2.175781 C 1.6875 -2.191406 1.640625 -2.199219 1.601562 -2.199219 C 1.484375 -2.199219 1.390625 -2.140625 1.34375 -2.015625 C 1.105469 -1.34375 0.699219 -0.527344 0.296875 0.046875 C 0.257812 0.101562 0.242188 0.164062 0.242188 0.21875 C 0.242188 0.3125 0.289062 0.40625 0.382812 0.457031 C 0.441406 0.496094 0.511719 0.519531 0.582031 0.519531 C 0.675781 0.519531 0.769531 0.472656 0.832031 0.390625 C 1.261719 -0.234375 1.648438 -1.113281 1.914062 -1.789062 C 1.929688 -1.828125 1.9375 -1.867188 1.9375 -1.90625 C 1.9375 -2.023438 1.867188 -2.125 1.726562 -2.175781 Z "/>
</g>
<g id="glyph-0-3">
<path d="M 4.238281 -5.21875 C 5.617188 -5.171875 6.480469 -4.214844 6.480469 -2.902344 C 6.480469 -2.085938 6.121094 -1.453125 5.628906 -1.089844 C 5.242188 -0.800781 4.644531 -0.605469 4.074219 -0.527344 C 3.894531 -0.496094 3.796875 -0.382812 3.796875 -0.226562 C 3.796875 -0.203125 3.796875 -0.171875 3.804688 -0.148438 C 3.835938 0.046875 3.964844 0.125 4.128906 0.125 C 4.152344 0.125 4.183594 0.125 4.214844 0.117188 C 4.835938 0.0234375 5.398438 -0.15625 5.847656 -0.441406 C 6.65625 -0.957031 7.132812 -1.789062 7.132812 -2.886719 C 7.132812 -4.597656 5.917969 -5.792969 4.082031 -5.792969 C 1.960938 -5.792969 0.605469 -4.394531 0.605469 -2.457031 C 0.605469 -1.152344 1.253906 -0.367188 2.0625 -0.367188 C 2.378906 -0.367188 2.707031 -0.464844 2.957031 -0.707031 C 3.226562 -0.964844 3.453125 -1.3125 3.726562 -2.117188 C 3.996094 -2.949219 4.167969 -4.035156 4.238281 -5.21875 Z M 3.59375 -5.195312 C 3.539062 -4.128906 3.34375 -3.0625 3.101562 -2.332031 C 2.917969 -1.765625 2.738281 -1.429688 2.566406 -1.269531 C 2.402344 -1.105469 2.222656 -1.042969 2.046875 -1.042969 C 1.632812 -1.042969 1.238281 -1.53125 1.238281 -2.464844 C 1.238281 -3.972656 2.167969 -5.0625 3.59375 -5.195312 Z "/>
</g>
<g id="glyph-0-4">
<path d="M 1.695312 0.480469 C 1.695312 0.613281 1.8125 0.675781 1.96875 0.675781 C 2.140625 0.675781 2.253906 0.605469 2.253906 0.472656 L 2.253906 -2.722656 C 2.503906 -2.753906 2.753906 -2.785156 3.003906 -2.824219 C 3.046875 -2.722656 3.085938 -2.621094 3.117188 -2.527344 C 3.15625 -2.417969 3.226562 -2.371094 3.320312 -2.371094 C 3.359375 -2.371094 3.40625 -2.378906 3.453125 -2.402344 C 3.554688 -2.441406 3.617188 -2.511719 3.617188 -2.605469 C 3.617188 -2.628906 3.609375 -2.652344 3.601562 -2.683594 C 3.460938 -3.0625 3.210938 -3.578125 2.996094 -3.933594 C 2.949219 -4.011719 2.878906 -4.050781 2.792969 -4.050781 C 2.761719 -4.050781 2.722656 -4.042969 2.683594 -4.027344 C 2.589844 -3.980469 2.527344 -3.902344 2.527344 -3.828125 C 2.527344 -3.804688 2.535156 -3.773438 2.550781 -3.75 C 2.628906 -3.609375 2.722656 -3.4375 2.808594 -3.257812 C 2.417969 -3.203125 2.023438 -3.171875 1.632812 -3.140625 C 2.125 -3.742188 2.746094 -4.621094 3.148438 -5.304688 C 3.171875 -5.34375 3.1875 -5.382812 3.1875 -5.421875 C 3.1875 -5.523438 3.125 -5.609375 3.019531 -5.660156 C 2.972656 -5.683594 2.925781 -5.699219 2.878906 -5.699219 C 2.785156 -5.699219 2.707031 -5.644531 2.652344 -5.554688 C 2.425781 -5.140625 2.140625 -4.691406 1.835938 -4.238281 C 1.695312 -4.425781 1.539062 -4.605469 1.382812 -4.773438 C 1.734375 -5.242188 2.054688 -5.761719 2.246094 -6.167969 C 2.261719 -6.207031 2.269531 -6.238281 2.269531 -6.277344 C 2.269531 -6.378906 2.199219 -6.457031 2.09375 -6.507812 C 2.046875 -6.53125 2 -6.539062 1.953125 -6.539062 C 1.859375 -6.539062 1.773438 -6.5 1.734375 -6.410156 C 1.546875 -6.019531 1.304688 -5.5625 1.011719 -5.164062 C 0.925781 -5.25 0.832031 -5.335938 0.746094 -5.414062 C 0.707031 -5.453125 0.660156 -5.46875 0.605469 -5.46875 C 0.535156 -5.46875 0.464844 -5.429688 0.40625 -5.367188 C 0.351562 -5.304688 0.320312 -5.242188 0.320312 -5.171875 C 0.320312 -5.109375 0.34375 -5.039062 0.40625 -4.984375 C 0.714844 -4.683594 1.167969 -4.246094 1.523438 -3.804688 C 1.351562 -3.570312 1.175781 -3.34375 1.003906 -3.109375 C 0.894531 -3.109375 0.792969 -3.109375 0.691406 -3.109375 C 0.652344 -3.109375 0.605469 -3.109375 0.566406 -3.109375 C 0.421875 -3.109375 0.335938 -3.023438 0.335938 -2.847656 C 0.335938 -2.675781 0.421875 -2.582031 0.566406 -2.582031 C 0.566406 -2.582031 0.574219 -2.582031 0.582031 -2.582031 C 0.941406 -2.597656 1.3125 -2.628906 1.695312 -2.660156 Z M 6.945312 -0.195312 L 6.945312 -5.601562 C 6.945312 -6.066406 6.742188 -6.246094 6.292969 -6.246094 L 4.449219 -6.246094 C 4.003906 -6.246094 3.796875 -6.066406 3.796875 -5.601562 L 3.796875 -0.195312 L 3.148438 -0.195312 C 3.011719 -0.195312 2.933594 -0.078125 2.933594 0.078125 C 2.933594 0.242188 3.011719 0.351562 3.148438 0.351562 L 7.371094 0.351562 C 7.511719 0.351562 7.589844 0.242188 7.589844 0.078125 C 7.589844 -0.078125 7.511719 -0.195312 7.371094 -0.195312 Z M 4.363281 -3.726562 L 6.363281 -3.726562 L 6.363281 -2.277344 L 4.363281 -2.277344 Z M 6.363281 -4.246094 L 4.363281 -4.246094 L 4.363281 -5.476562 C 4.363281 -5.644531 4.433594 -5.691406 4.589844 -5.691406 L 6.136719 -5.691406 C 6.285156 -5.691406 6.363281 -5.644531 6.363281 -5.476562 Z M 4.363281 -1.757812 L 6.363281 -1.757812 L 6.363281 -0.195312 L 4.363281 -0.195312 Z M 0.816406 -0.0234375 C 1.011719 -0.511719 1.199219 -1.269531 1.261719 -1.851562 C 1.269531 -1.875 1.269531 -1.898438 1.269531 -1.921875 C 1.269531 -2.070312 1.199219 -2.132812 1.035156 -2.15625 C 1.019531 -2.15625 1.011719 -2.15625 0.996094 -2.15625 C 0.855469 -2.15625 0.753906 -2.085938 0.738281 -1.953125 C 0.660156 -1.328125 0.480469 -0.652344 0.3125 -0.265625 C 0.289062 -0.210938 0.273438 -0.15625 0.273438 -0.117188 C 0.273438 0 0.34375 0.0703125 0.449219 0.117188 C 0.496094 0.132812 0.535156 0.140625 0.582031 0.140625 C 0.683594 0.140625 0.769531 0.0859375 0.816406 -0.0234375 Z M 3.40625 -0.746094 C 3.328125 -1.191406 3.21875 -1.632812 3.070312 -2.0625 C 3.03125 -2.160156 2.964844 -2.199219 2.863281 -2.199219 C 2.839844 -2.199219 2.808594 -2.199219 2.777344 -2.191406 C 2.667969 -2.160156 2.597656 -2.085938 2.597656 -1.992188 C 2.597656 -1.976562 2.597656 -1.953125 2.605469 -1.9375 C 2.753906 -1.5 2.839844 -1.074219 2.902344 -0.667969 C 2.925781 -0.527344 3.003906 -0.457031 3.125 -0.457031 C 3.15625 -0.457031 3.179688 -0.457031 3.210938 -0.464844 C 3.335938 -0.496094 3.414062 -0.566406 3.414062 -0.683594 C 3.414062 -0.699219 3.414062 -0.722656 3.40625 -0.746094 Z "/>
</g>
<g id="glyph-0-5">
<path d="M 3.132812 -3.648438 C 1.492188 -3.648438 0.558594 -2.824219 0.558594 -1.617188 C 0.558594 -0.738281 1.074219 -0.296875 1.570312 -0.296875 C 2.03125 -0.296875 2.425781 -0.527344 2.824219 -1.277344 C 3.078125 -1.75 3.335938 -2.378906 3.5625 -3.03125 C 4.230469 -2.949219 4.984375 -2.691406 5.554688 -2.347656 C 5.3125 -1.285156 4.773438 -0.644531 3.882812 -0.28125 C 3.765625 -0.226562 3.6875 -0.117188 3.6875 0.015625 C 3.6875 0.0625 3.695312 0.109375 3.71875 0.15625 C 3.765625 0.265625 3.859375 0.320312 3.972656 0.320312 C 4.027344 0.320312 4.082031 0.304688 4.144531 0.28125 C 5.179688 -0.148438 5.808594 -0.886719 6.097656 -2.015625 C 6.433594 -1.796875 6.710938 -1.5625 6.976562 -1.296875 C 7.046875 -1.230469 7.125 -1.199219 7.210938 -1.199219 C 7.296875 -1.199219 7.378906 -1.238281 7.441406 -1.320312 C 7.496094 -1.375 7.519531 -1.453125 7.519531 -1.539062 C 7.519531 -1.640625 7.472656 -1.757812 7.371094 -1.84375 C 7.039062 -2.160156 6.671875 -2.433594 6.261719 -2.683594 C 6.339844 -3.1875 6.378906 -3.804688 6.378906 -4.488281 C 6.378906 -4.550781 6.378906 -4.613281 6.378906 -4.675781 C 6.378906 -4.867188 6.238281 -4.96875 6.050781 -4.96875 C 5.878906 -4.96875 5.746094 -4.859375 5.746094 -4.660156 C 5.746094 -4.019531 5.722656 -3.46875 5.667969 -2.996094 C 5.0625 -3.289062 4.363281 -3.53125 3.75 -3.601562 C 3.917969 -4.167969 4.074219 -4.730469 4.175781 -5.179688 C 4.199219 -5.289062 4.214844 -5.390625 4.214844 -5.476562 C 4.214844 -5.644531 4.167969 -5.761719 4.082031 -5.855469 C 3.964844 -5.980469 3.804688 -6.050781 3.601562 -6.050781 C 3.585938 -6.050781 3.5625 -6.050781 3.539062 -6.050781 C 2.871094 -6.035156 2.132812 -6.019531 1.445312 -6.011719 C 1.285156 -6.003906 1.160156 -5.894531 1.160156 -5.699219 C 1.160156 -5.691406 1.160156 -5.691406 1.160156 -5.683594 C 1.167969 -5.515625 1.296875 -5.414062 1.46875 -5.414062 C 2.070312 -5.414062 2.761719 -5.445312 3.320312 -5.46875 C 3.328125 -5.46875 3.335938 -5.46875 3.34375 -5.46875 C 3.46875 -5.46875 3.53125 -5.421875 3.53125 -5.3125 C 3.53125 -5.289062 3.53125 -5.265625 3.523438 -5.234375 C 3.4375 -4.746094 3.304688 -4.207031 3.132812 -3.648438 Z M 2.941406 -3.070312 C 2.769531 -2.558594 2.558594 -2.070312 2.347656 -1.664062 C 2.0625 -1.113281 1.835938 -0.957031 1.609375 -0.957031 C 1.375 -0.957031 1.167969 -1.175781 1.167969 -1.664062 C 1.167969 -2.472656 1.8125 -3.070312 2.941406 -3.070312 Z "/>
</g>
<g id="glyph-0-6">
<path d="M 3.421875 -6.332031 C 2.660156 -5.320312 1.632812 -4.503906 0.421875 -3.925781 C 0.296875 -3.875 0.226562 -3.757812 0.226562 -3.640625 C 0.226562 -3.59375 0.234375 -3.546875 0.257812 -3.5 C 0.320312 -3.375 0.421875 -3.3125 0.535156 -3.3125 C 0.582031 -3.3125 0.636719 -3.328125 0.683594 -3.351562 C 1.882812 -3.910156 3.078125 -4.890625 3.78125 -5.847656 C 3.8125 -5.886719 3.84375 -5.910156 3.875 -5.910156 C 3.902344 -5.910156 3.933594 -5.886719 3.972656 -5.839844 C 4.691406 -4.898438 5.839844 -3.988281 7.101562 -3.351562 C 7.148438 -3.328125 7.203125 -3.320312 7.25 -3.320312 C 7.371094 -3.320312 7.488281 -3.398438 7.542969 -3.515625 C 7.566406 -3.570312 7.574219 -3.625 7.574219 -3.671875 C 7.574219 -3.789062 7.511719 -3.894531 7.386719 -3.949219 C 6.191406 -4.519531 5.148438 -5.25 4.316406 -6.332031 C 4.214844 -6.457031 4.042969 -6.515625 3.875 -6.515625 C 3.703125 -6.515625 3.523438 -6.457031 3.421875 -6.332031 Z M 2.316406 -4.097656 C 2.167969 -4.097656 2.09375 -3.964844 2.09375 -3.8125 C 2.09375 -3.648438 2.167969 -3.523438 2.316406 -3.523438 L 5.46875 -3.523438 C 5.609375 -3.523438 5.691406 -3.648438 5.691406 -3.8125 C 5.691406 -3.964844 5.609375 -4.097656 5.46875 -4.097656 Z M 2.039062 -2.652344 C 1.5625 -2.652344 1.34375 -2.449219 1.34375 -1.984375 L 1.34375 -0.273438 C 1.34375 0.203125 1.5625 0.398438 2.039062 0.398438 L 5.753906 0.398438 C 6.230469 0.398438 6.449219 0.203125 6.449219 -0.273438 L 6.449219 -1.984375 C 6.449219 -2.449219 6.230469 -2.652344 5.753906 -2.652344 Z M 2.207031 -0.164062 C 2.046875 -0.164062 1.96875 -0.210938 1.96875 -0.382812 L 1.96875 -1.875 C 1.96875 -2.046875 2.046875 -2.09375 2.207031 -2.09375 L 5.578125 -2.09375 C 5.738281 -2.09375 5.824219 -2.046875 5.824219 -1.875 L 5.824219 -0.382812 C 5.824219 -0.210938 5.738281 -0.164062 5.578125 -0.164062 Z "/>
</g>
<g id="glyph-0-7">
<path d="M 2.636719 -4.410156 C 2.738281 -4.511719 2.785156 -4.621094 2.785156 -4.722656 C 2.785156 -4.867188 2.675781 -4.992188 2.496094 -4.984375 C 2.511719 -5.351562 2.527344 -5.722656 2.550781 -6.097656 C 2.550781 -6.105469 2.550781 -6.105469 2.550781 -6.113281 C 2.550781 -6.285156 2.433594 -6.394531 2.253906 -6.394531 C 2.046875 -6.394531 1.945312 -6.308594 1.9375 -6.121094 C 1.914062 -5.714844 1.898438 -5.335938 1.890625 -4.945312 C 1.539062 -4.921875 1.136719 -4.882812 0.738281 -4.84375 C 0.582031 -4.828125 0.480469 -4.722656 0.480469 -4.542969 C 0.480469 -4.535156 0.480469 -4.527344 0.480469 -4.519531 C 0.488281 -4.363281 0.589844 -4.246094 0.738281 -4.246094 C 0.753906 -4.246094 0.761719 -4.246094 0.777344 -4.246094 C 1.128906 -4.277344 1.507812 -4.332031 1.875 -4.355469 C 1.867188 -3.972656 1.851562 -3.523438 1.851562 -3.164062 C 1.328125 -2.621094 0.832031 -2.015625 0.472656 -1.515625 C 0.421875 -1.4375 0.398438 -1.359375 0.398438 -1.285156 C 0.398438 -1.183594 0.433594 -1.097656 0.503906 -1.035156 C 0.574219 -0.980469 0.644531 -0.957031 0.714844 -0.957031 C 0.808594 -0.957031 0.894531 -1.003906 0.957031 -1.097656 C 1.175781 -1.414062 1.421875 -1.75 1.5625 -1.921875 C 1.65625 -2.039062 1.78125 -2.222656 1.875 -2.386719 C 1.84375 -2.109375 1.84375 -1.867188 1.84375 -1.726562 C 1.835938 -1.5 1.835938 -1.199219 1.835938 -0.863281 C 1.835938 -0.527344 1.835938 -0.164062 1.84375 0.203125 C 1.84375 0.375 1.976562 0.496094 2.148438 0.496094 C 2.347656 0.496094 2.464844 0.382812 2.464844 0.203125 C 2.457031 -0.550781 2.441406 -1.277344 2.441406 -2.007812 C 2.441406 -2.300781 2.441406 -2.605469 2.449219 -2.917969 C 2.683594 -3.140625 2.910156 -3.351562 3.140625 -3.53125 C 3.742188 -3.996094 4.355469 -4.269531 5.015625 -4.269531 C 5.894531 -4.269531 6.507812 -3.640625 6.507812 -2.722656 C 6.507812 -1.914062 6.246094 -1.429688 5.699219 -1.105469 C 5.28125 -0.855469 4.582031 -0.714844 3.972656 -0.707031 C 3.773438 -0.707031 3.65625 -0.574219 3.65625 -0.382812 C 3.664062 -0.1875 3.765625 -0.0390625 3.980469 -0.0390625 C 4.714844 -0.046875 5.484375 -0.203125 6.019531 -0.511719 C 6.820312 -0.980469 7.179688 -1.710938 7.179688 -2.699219 C 7.179688 -3.941406 6.355469 -4.867188 5.0625 -4.867188 C 4.324219 -4.867188 3.671875 -4.597656 2.988281 -4.089844 C 2.886719 -4.019531 2.808594 -3.964844 2.699219 -3.867188 C 2.597656 -3.765625 2.535156 -3.695312 2.457031 -3.617188 C 2.464844 -3.734375 2.472656 -3.867188 2.480469 -3.972656 C 2.488281 -4.027344 2.488281 -4.074219 2.488281 -4.128906 C 2.488281 -4.175781 2.488281 -4.222656 2.488281 -4.261719 Z "/>
</g>
<g id="glyph-0-8">
<path d="M 5.824219 -3.957031 C 6.277344 -3.964844 6.726562 -3.980469 7.164062 -3.980469 C 7.371094 -3.980469 7.457031 -4.097656 7.457031 -4.292969 C 7.457031 -4.472656 7.371094 -4.582031 7.15625 -4.582031 C 6.71875 -4.574219 6.253906 -4.566406 5.832031 -4.550781 C 5.839844 -4.804688 5.839844 -5.039062 5.839844 -5.273438 C 5.839844 -5.507812 5.839844 -5.730469 5.839844 -5.957031 C 5.839844 -6.128906 5.691406 -6.230469 5.515625 -6.230469 C 5.335938 -6.230469 5.203125 -6.128906 5.203125 -5.949219 C 5.203125 -5.652344 5.210938 -5.34375 5.210938 -5.023438 C 5.210938 -4.859375 5.210938 -4.699219 5.203125 -4.535156 C 4.757812 -4.519531 4.347656 -4.496094 4.011719 -4.480469 C 3.507812 -4.457031 3.019531 -4.425781 2.542969 -4.394531 C 2.550781 -4.867188 2.550781 -5.34375 2.550781 -5.800781 C 2.550781 -5.980469 2.425781 -6.082031 2.222656 -6.089844 C 2.046875 -6.089844 1.90625 -5.988281 1.90625 -5.800781 C 1.90625 -5.375 1.90625 -4.835938 1.898438 -4.355469 C 1.460938 -4.316406 1.035156 -4.285156 0.613281 -4.253906 C 0.449219 -4.246094 0.351562 -4.128906 0.351562 -3.964844 C 0.351562 -3.957031 0.351562 -3.949219 0.351562 -3.941406 C 0.359375 -3.789062 0.457031 -3.664062 0.621094 -3.664062 C 0.636719 -3.664062 0.652344 -3.664062 0.667969 -3.664062 C 1.082031 -3.695312 1.5 -3.734375 1.898438 -3.757812 C 1.898438 -3.445312 1.890625 -3.148438 1.890625 -2.863281 C 1.890625 -2.792969 1.890625 -2.714844 1.890625 -2.652344 C 1.890625 -1.3125 1.960938 -0.933594 2.167969 -0.605469 C 2.449219 -0.117188 3.101562 0.0859375 4.332031 0.0859375 C 5.117188 0.0859375 5.917969 0.015625 6.480469 -0.09375 C 6.65625 -0.125 6.765625 -0.242188 6.765625 -0.429688 C 6.765625 -0.449219 6.765625 -0.472656 6.757812 -0.496094 C 6.734375 -0.660156 6.625 -0.753906 6.464844 -0.753906 C 6.433594 -0.753906 6.394531 -0.753906 6.355469 -0.746094 C 5.824219 -0.636719 5.0625 -0.558594 4.308594 -0.558594 C 3.320312 -0.558594 2.886719 -0.660156 2.691406 -1.019531 C 2.574219 -1.214844 2.535156 -1.539062 2.535156 -2.941406 C 2.535156 -3.234375 2.535156 -3.515625 2.535156 -3.796875 C 3.039062 -3.835938 3.539062 -3.859375 4.035156 -3.890625 C 4.402344 -3.910156 4.789062 -3.917969 5.203125 -3.933594 C 5.195312 -3.4375 5.171875 -2.988281 5.117188 -2.691406 C 5.054688 -2.371094 4.9375 -2.253906 4.707031 -2.253906 C 4.457031 -2.253906 4.160156 -2.386719 3.964844 -2.542969 C 3.902344 -2.597656 3.835938 -2.621094 3.765625 -2.621094 C 3.671875 -2.621094 3.578125 -2.574219 3.515625 -2.496094 C 3.476562 -2.441406 3.453125 -2.371094 3.453125 -2.308594 C 3.453125 -2.214844 3.492188 -2.132812 3.5625 -2.070312 C 3.917969 -1.773438 4.386719 -1.625 4.765625 -1.625 C 5.320312 -1.625 5.609375 -1.953125 5.714844 -2.535156 C 5.785156 -2.902344 5.824219 -3.421875 5.824219 -3.957031 Z "/>
</g>
<g id="glyph-0-9">
<path d="M 5.085938 -5.140625 C 3.585938 -4.605469 2.761719 -3.539062 2.761719 -2.363281 C 2.761719 -1.375 3.296875 -0.667969 4.097656 -0.28125 C 4.589844 -0.046875 5.203125 0.078125 5.847656 0.078125 C 6.082031 0.078125 6.207031 -0.046875 6.222656 -0.273438 C 6.222656 -0.289062 6.222656 -0.296875 6.222656 -0.3125 C 6.222656 -0.488281 6.105469 -0.628906 5.878906 -0.628906 C 5.359375 -0.636719 4.835938 -0.722656 4.425781 -0.917969 C 3.867188 -1.175781 3.429688 -1.640625 3.429688 -2.417969 C 3.429688 -3.671875 4.605469 -4.789062 6.285156 -5.070312 C 6.464844 -5.101562 6.585938 -5.117188 6.71875 -5.132812 C 6.953125 -5.15625 7.023438 -5.304688 7.023438 -5.46875 L 7.023438 -5.492188 C 7.007812 -5.667969 6.90625 -5.792969 6.6875 -5.792969 L 6.664062 -5.792969 C 4.78125 -5.707031 2.730469 -5.578125 0.832031 -5.429688 C 0.660156 -5.414062 0.542969 -5.273438 0.542969 -5.101562 L 0.542969 -5.070312 C 0.558594 -4.882812 0.675781 -4.773438 0.878906 -4.773438 C 0.894531 -4.773438 0.902344 -4.773438 0.917969 -4.773438 C 1.90625 -4.851562 2.996094 -4.953125 4.105469 -5.046875 C 4.363281 -5.070312 4.699219 -5.109375 5.078125 -5.1875 Z M 5.507812 -3.851562 C 5.507812 -3.78125 5.539062 -3.71875 5.585938 -3.664062 C 5.800781 -3.421875 6.035156 -3.101562 6.199219 -2.816406 C 6.246094 -2.722656 6.308594 -2.683594 6.402344 -2.683594 C 6.546875 -2.683594 6.65625 -2.785156 6.65625 -2.902344 C 6.65625 -3.003906 6.625 -3.054688 6.601562 -3.101562 C 6.457031 -3.359375 6.175781 -3.734375 5.933594 -3.972656 C 5.871094 -4.035156 5.816406 -4.058594 5.730469 -4.058594 C 5.609375 -4.058594 5.507812 -3.949219 5.507812 -3.851562 Z M 6.363281 -4.355469 C 6.363281 -4.261719 6.386719 -4.222656 6.457031 -4.152344 C 6.664062 -3.925781 6.867188 -3.625 7.039062 -3.328125 C 7.09375 -3.242188 7.148438 -3.203125 7.242188 -3.203125 C 7.386719 -3.203125 7.480469 -3.328125 7.480469 -3.421875 C 7.480469 -3.507812 7.457031 -3.570312 7.433594 -3.617188 C 7.296875 -3.867188 7 -4.269531 6.796875 -4.464844 C 6.726562 -4.527344 6.671875 -4.558594 6.585938 -4.558594 C 6.480469 -4.558594 6.363281 -4.457031 6.363281 -4.355469 Z "/>
</g>
<g id="glyph-0-10">
<path d="M 0.550781 -1.382812 C 0.472656 -1.3125 0.429688 -1.214844 0.429688 -1.128906 C 0.429688 -1.050781 0.457031 -0.980469 0.511719 -0.933594 C 0.964844 -0.550781 1.445312 0 1.742188 0.421875 C 1.8125 0.527344 1.921875 0.582031 2.03125 0.582031 C 2.117188 0.582031 2.199219 0.550781 2.269531 0.496094 C 2.363281 0.429688 2.410156 0.335938 2.410156 0.242188 C 2.410156 0.164062 2.386719 0.0859375 2.332031 0.0078125 C 2.015625 -0.464844 1.46875 -1.050781 1.042969 -1.382812 C 0.964844 -1.445312 0.878906 -1.476562 0.792969 -1.476562 C 0.707031 -1.476562 0.621094 -1.445312 0.550781 -1.382812 Z "/>
</g>
<g id="glyph-0-11">
<path d="M 4.113281 -4.605469 L 4.113281 -5.289062 L 7.203125 -5.289062 C 7.335938 -5.289062 7.410156 -5.398438 7.410156 -5.546875 C 7.410156 -5.699219 7.335938 -5.808594 7.203125 -5.808594 L 4.113281 -5.808594 L 4.113281 -6.402344 C 4.113281 -6.539062 3.996094 -6.617188 3.8125 -6.617188 C 3.632812 -6.617188 3.523438 -6.539062 3.523438 -6.402344 L 3.523438 -5.808594 L 0.683594 -5.808594 C 0.550781 -5.808594 0.472656 -5.691406 0.472656 -5.546875 C 0.472656 -5.398438 0.550781 -5.289062 0.683594 -5.289062 L 3.523438 -5.289062 L 3.523438 -4.605469 L 1.160156 -4.605469 C 1.027344 -4.605469 0.949219 -4.488281 0.949219 -4.347656 C 0.949219 -4.199219 1.027344 -4.082031 1.160156 -4.082031 L 6.671875 -4.082031 C 6.804688 -4.082031 6.882812 -4.199219 6.882812 -4.347656 C 6.882812 -4.488281 6.804688 -4.605469 6.671875 -4.605469 Z M 5.988281 -1.34375 C 6.441406 -1.34375 6.65625 -1.523438 6.65625 -1.976562 L 6.65625 -2.886719 C 6.65625 -3.335938 6.441406 -3.507812 5.988281 -3.507812 L 1.804688 -3.507812 C 1.359375 -3.507812 1.144531 -3.335938 1.144531 -2.886719 C 1.144531 -2.519531 1.128906 -2.199219 1.105469 -1.90625 C 1.027344 -0.941406 0.824219 -0.390625 0.390625 0.140625 C 0.34375 0.203125 0.3125 0.28125 0.3125 0.359375 C 0.3125 0.441406 0.351562 0.519531 0.421875 0.582031 C 0.480469 0.621094 0.542969 0.644531 0.613281 0.644531 C 0.714844 0.644531 0.808594 0.597656 0.878906 0.519531 C 1.269531 0.0546875 1.539062 -0.589844 1.640625 -1.34375 Z M 4.121094 -1.859375 L 4.121094 -3.011719 L 5.792969 -3.011719 C 5.964844 -3.011719 6.066406 -2.964844 6.066406 -2.785156 L 6.066406 -2.085938 C 6.066406 -1.90625 5.964844 -1.859375 5.792969 -1.859375 Z M 3.546875 -1.859375 L 1.703125 -1.859375 C 1.71875 -2.078125 1.734375 -2.371094 1.734375 -2.785156 C 1.734375 -2.964844 1.835938 -3.011719 2.007812 -3.011719 L 3.546875 -3.011719 Z "/>
</g>
<g id="glyph-0-12">
<path d="M 1.058594 0.429688 C 1.058594 0.574219 1.175781 0.652344 1.351562 0.652344 C 1.53125 0.652344 1.648438 0.574219 1.648438 0.429688 L 1.648438 -4.675781 C 1.898438 -5.203125 2.101562 -5.746094 2.238281 -6.269531 C 2.246094 -6.300781 2.253906 -6.324219 2.253906 -6.355469 C 2.253906 -6.472656 2.167969 -6.53125 2.03125 -6.5625 C 2 -6.570312 1.960938 -6.570312 1.929688 -6.570312 C 1.796875 -6.570312 1.695312 -6.515625 1.664062 -6.378906 C 1.375 -5.242188 0.847656 -4.167969 0.195312 -3.375 C 0.140625 -3.304688 0.117188 -3.234375 0.117188 -3.164062 C 0.117188 -3.085938 0.15625 -3.011719 0.234375 -2.957031 C 0.296875 -2.910156 0.359375 -2.886719 0.421875 -2.886719 C 0.511719 -2.886719 0.589844 -2.933594 0.652344 -3.023438 C 0.847656 -3.25 1.003906 -3.5 1.136719 -3.773438 C 1.089844 -3.4375 1.058594 -3.078125 1.058594 -2.761719 Z M 5.054688 -3.0625 L 5.054688 -3.957031 L 6.167969 -3.957031 C 6.300781 -3.957031 6.363281 -4.082031 6.363281 -4.214844 C 6.363281 -4.363281 6.300781 -4.472656 6.167969 -4.472656 L 5.054688 -4.472656 L 5.054688 -5.1875 C 5.054688 -5.320312 4.945312 -5.390625 4.78125 -5.390625 C 4.628906 -5.390625 4.535156 -5.320312 4.535156 -5.1875 L 4.535156 -4.472656 L 3.476562 -4.472656 C 3.34375 -4.472656 3.273438 -4.355469 3.273438 -4.214844 C 3.273438 -4.074219 3.34375 -3.957031 3.476562 -3.957031 L 4.535156 -3.957031 L 4.535156 -3.0625 L 4.121094 -3.0625 C 3.773438 -3.0625 3.59375 -2.902344 3.59375 -2.519531 L 3.59375 -1.328125 C 3.59375 -0.949219 3.773438 -0.785156 4.121094 -0.785156 L 5.5 -0.785156 C 5.847656 -0.785156 6.027344 -0.949219 6.027344 -1.328125 L 6.027344 -2.519531 C 6.027344 -2.902344 5.847656 -3.0625 5.5 -3.0625 Z M 5.320312 -2.597656 C 5.445312 -2.597656 5.515625 -2.558594 5.515625 -2.410156 L 5.515625 -1.453125 C 5.515625 -1.304688 5.445312 -1.269531 5.320312 -1.269531 L 4.292969 -1.269531 C 4.167969 -1.269531 4.097656 -1.304688 4.097656 -1.453125 L 4.097656 -2.410156 C 4.097656 -2.558594 4.167969 -2.597656 4.292969 -2.597656 Z M 2.425781 -0.25 C 2.425781 0.242188 2.675781 0.421875 3.140625 0.421875 L 6.492188 0.421875 C 6.96875 0.421875 7.21875 0.203125 7.21875 -0.28125 L 7.21875 -5.523438 C 7.21875 -6.003906 6.96875 -6.222656 6.492188 -6.222656 L 3.148438 -6.222656 C 2.683594 -6.222656 2.425781 -6.003906 2.425781 -5.515625 Z M 3.273438 -0.132812 C 3.101562 -0.132812 3.003906 -0.203125 3.003906 -0.390625 L 3.003906 -5.414062 C 3.003906 -5.59375 3.109375 -5.667969 3.28125 -5.667969 L 6.371094 -5.667969 C 6.539062 -5.667969 6.640625 -5.601562 6.640625 -5.414062 L 6.640625 -0.390625 C 6.640625 -0.203125 6.539062 -0.132812 6.371094 -0.132812 Z "/>
</g>
<g id="glyph-0-13">
<path d="M 4.773438 -2.167969 L 4.773438 -0.195312 L 2.699219 -0.195312 C 2.550781 -0.195312 2.472656 -0.0859375 2.472656 0.0859375 C 2.472656 0.25 2.550781 0.375 2.699219 0.375 L 7.28125 0.375 C 7.425781 0.375 7.503906 0.25 7.503906 0.0859375 C 7.503906 -0.0859375 7.425781 -0.195312 7.28125 -0.195312 L 5.367188 -0.195312 L 5.367188 -2.167969 L 6.953125 -2.167969 C 7.09375 -2.167969 7.171875 -2.292969 7.171875 -2.449219 C 7.171875 -2.613281 7.09375 -2.714844 6.953125 -2.714844 L 5.367188 -2.714844 L 5.367188 -4.285156 L 7.085938 -4.285156 C 7.226562 -4.285156 7.3125 -4.402344 7.3125 -4.566406 C 7.3125 -4.738281 7.226562 -4.835938 7.085938 -4.835938 L 5.367188 -4.835938 L 5.367188 -6.339844 C 5.367188 -6.484375 5.25 -6.5625 5.0625 -6.5625 C 4.882812 -6.5625 4.773438 -6.484375 4.773438 -6.339844 L 4.773438 -4.835938 L 3.8125 -4.835938 C 3.890625 -5.148438 3.949219 -5.476562 3.996094 -5.800781 C 3.996094 -5.816406 3.996094 -5.832031 3.996094 -5.847656 C 3.996094 -5.980469 3.910156 -6.074219 3.757812 -6.089844 C 3.734375 -6.089844 3.71875 -6.089844 3.703125 -6.089844 C 3.546875 -6.089844 3.460938 -6.019531 3.445312 -5.878906 C 3.335938 -4.984375 3.054688 -4.097656 2.597656 -3.351562 C 2.558594 -3.289062 2.542969 -3.234375 2.542969 -3.179688 C 2.542969 -3.09375 2.589844 -3.011719 2.691406 -2.964844 C 2.746094 -2.933594 2.800781 -2.917969 2.855469 -2.917969 C 2.949219 -2.917969 3.03125 -2.972656 3.09375 -3.078125 C 3.3125 -3.460938 3.5 -3.867188 3.640625 -4.285156 L 4.773438 -4.285156 L 4.773438 -2.714844 L 3.289062 -2.714844 C 3.148438 -2.714844 3.070312 -2.605469 3.070312 -2.457031 C 3.070312 -2.300781 3.164062 -2.167969 3.320312 -2.167969 Z M 1.898438 -6.347656 C 1.898438 -6.492188 1.78125 -6.570312 1.601562 -6.570312 C 1.4375 -6.570312 1.320312 -6.492188 1.320312 -6.347656 L 1.320312 0.441406 C 1.320312 0.589844 1.4375 0.667969 1.601562 0.667969 C 1.78125 0.667969 1.898438 0.589844 1.898438 0.441406 Z M 0.816406 -5.015625 C 0.808594 -5.015625 0.800781 -5.015625 0.792969 -5.015625 C 0.667969 -5.015625 0.558594 -4.953125 0.550781 -4.804688 C 0.519531 -4.238281 0.414062 -3.5625 0.273438 -3.101562 C 0.265625 -3.070312 0.257812 -3.039062 0.257812 -3.011719 C 0.257812 -2.902344 0.328125 -2.824219 0.433594 -2.792969 C 0.464844 -2.785156 0.488281 -2.777344 0.519531 -2.777344 C 0.628906 -2.777344 0.722656 -2.832031 0.761719 -2.964844 C 0.910156 -3.476562 1.027344 -4.199219 1.058594 -4.757812 C 1.058594 -4.765625 1.058594 -4.765625 1.058594 -4.773438 C 1.058594 -4.945312 0.949219 -5.007812 0.816406 -5.015625 Z M 2.558594 -4.984375 C 2.519531 -5.085938 2.457031 -5.132812 2.371094 -5.132812 C 2.339844 -5.132812 2.300781 -5.125 2.261719 -5.117188 C 2.167969 -5.085938 2.101562 -5.015625 2.101562 -4.914062 C 2.101562 -4.890625 2.109375 -4.867188 2.117188 -4.84375 C 2.199219 -4.597656 2.292969 -4.238281 2.332031 -4.035156 C 2.347656 -3.917969 2.441406 -3.851562 2.550781 -3.851562 C 2.574219 -3.851562 2.597656 -3.851562 2.628906 -3.859375 C 2.738281 -3.890625 2.808594 -3.972656 2.808594 -4.089844 C 2.808594 -4.105469 2.808594 -4.121094 2.800781 -4.136719 C 2.761719 -4.355469 2.652344 -4.714844 2.558594 -4.984375 Z "/>
</g>
<g id="glyph-0-14">
<path d="M 5.28125 -4.765625 C 5.855469 -4.003906 6.355469 -2.949219 6.625 -2.117188 C 6.671875 -1.953125 6.789062 -1.875 6.921875 -1.875 C 6.96875 -1.875 7.015625 -1.890625 7.070312 -1.90625 C 7.195312 -1.945312 7.265625 -2.054688 7.265625 -2.183594 C 7.265625 -2.230469 7.257812 -2.277344 7.242188 -2.324219 C 6.976562 -3.210938 6.417969 -4.332031 5.839844 -5.09375 C 5.769531 -5.1875 5.667969 -5.234375 5.5625 -5.234375 C 5.507812 -5.234375 5.445312 -5.21875 5.390625 -5.1875 C 5.289062 -5.132812 5.226562 -5.03125 5.226562 -4.921875 C 5.226562 -4.867188 5.242188 -4.8125 5.28125 -4.765625 Z M 2.261719 -4.621094 C 1.757812 -4.582031 1.113281 -4.503906 0.644531 -4.433594 C 0.480469 -4.410156 0.382812 -4.292969 0.382812 -4.144531 C 0.382812 -4.121094 0.382812 -4.105469 0.390625 -4.082031 C 0.414062 -3.917969 0.519531 -3.835938 0.652344 -3.835938 C 0.675781 -3.835938 0.699219 -3.835938 0.722656 -3.84375 C 1.167969 -3.902344 1.71875 -3.980469 2.117188 -4.011719 C 2.015625 -3.632812 1.882812 -3.257812 1.757812 -2.894531 C 1.40625 -1.90625 0.988281 -1.019531 0.519531 -0.273438 C 0.480469 -0.203125 0.457031 -0.140625 0.457031 -0.0703125 C 0.457031 0.0390625 0.519531 0.140625 0.628906 0.203125 C 0.683594 0.234375 0.746094 0.257812 0.808594 0.257812 C 0.910156 0.257812 1.019531 0.195312 1.097656 0.0625 C 1.570312 -0.707031 1.992188 -1.648438 2.355469 -2.699219 C 2.511719 -3.148438 2.652344 -3.609375 2.777344 -4.058594 C 2.972656 -4.074219 3.179688 -4.089844 3.445312 -4.089844 C 4.175781 -4.089844 4.402344 -3.804688 4.402344 -2.941406 C 4.402344 -2.246094 4.300781 -1.507812 4.175781 -1.074219 C 4.035156 -0.574219 3.835938 -0.433594 3.507812 -0.433594 C 3.21875 -0.433594 2.910156 -0.519531 2.683594 -0.628906 C 2.613281 -0.667969 2.542969 -0.683594 2.480469 -0.683594 C 2.371094 -0.683594 2.277344 -0.621094 2.230469 -0.511719 C 2.207031 -0.464844 2.191406 -0.414062 2.191406 -0.359375 C 2.191406 -0.242188 2.253906 -0.132812 2.363281 -0.0703125 C 2.683594 0.109375 3.117188 0.210938 3.492188 0.210938 C 4.113281 0.210938 4.558594 -0.0703125 4.773438 -0.832031 C 4.9375 -1.390625 5.046875 -2.160156 5.046875 -2.910156 C 5.046875 -4.121094 4.582031 -4.667969 3.515625 -4.667969 C 3.328125 -4.667969 3.140625 -4.660156 2.917969 -4.652344 C 3.019531 -5.078125 3.117188 -5.539062 3.179688 -5.980469 C 3.179688 -6.003906 3.179688 -6.027344 3.179688 -6.050781 C 3.179688 -6.199219 3.085938 -6.292969 2.910156 -6.316406 C 2.878906 -6.316406 2.855469 -6.324219 2.832031 -6.324219 C 2.675781 -6.324219 2.558594 -6.253906 2.535156 -6.050781 C 2.464844 -5.578125 2.378906 -5.09375 2.261719 -4.621094 Z M 5.761719 -6.082031 C 5.761719 -6.011719 5.792969 -5.949219 5.839844 -5.894531 C 6.058594 -5.652344 6.292969 -5.335938 6.457031 -5.046875 C 6.5 -4.953125 6.5625 -4.914062 6.65625 -4.914062 C 6.804688 -4.914062 6.914062 -5.015625 6.914062 -5.132812 C 6.914062 -5.234375 6.882812 -5.289062 6.859375 -5.335938 C 6.710938 -5.59375 6.433594 -5.964844 6.191406 -6.207031 C 6.128906 -6.269531 6.074219 -6.292969 5.988281 -6.292969 C 5.863281 -6.292969 5.761719 -6.183594 5.761719 -6.082031 Z M 6.617188 -6.585938 C 6.617188 -6.492188 6.640625 -6.457031 6.710938 -6.386719 C 6.921875 -6.160156 7.125 -5.855469 7.296875 -5.5625 C 7.347656 -5.476562 7.402344 -5.4375 7.496094 -5.4375 C 7.644531 -5.4375 7.738281 -5.5625 7.738281 -5.652344 C 7.738281 -5.738281 7.714844 -5.800781 7.691406 -5.847656 C 7.550781 -6.097656 7.257812 -6.5 7.054688 -6.695312 C 6.984375 -6.757812 6.929688 -6.789062 6.84375 -6.789062 C 6.734375 -6.789062 6.617188 -6.6875 6.617188 -6.585938 Z "/>
</g>
<g id="glyph-0-15">
<path d="M 4.269531 -0.234375 L 4.269531 -2.199219 L 6.480469 -2.199219 C 6.617188 -2.199219 6.703125 -2.316406 6.703125 -2.480469 C 6.703125 -2.644531 6.617188 -2.761719 6.480469 -2.761719 L 4.269531 -2.761719 L 4.269531 -4.386719 L 6.890625 -4.386719 C 7.03125 -4.386719 7.109375 -4.503906 7.109375 -4.667969 C 7.109375 -4.835938 7.03125 -4.945312 6.890625 -4.945312 L 4.269531 -4.945312 L 4.269531 -6.316406 C 4.269531 -6.464844 4.136719 -6.554688 3.949219 -6.554688 C 3.773438 -6.554688 3.640625 -6.464844 3.640625 -6.316406 L 3.640625 -4.945312 L 2.0625 -4.945312 C 2.191406 -5.257812 2.308594 -5.578125 2.394531 -5.878906 C 2.410156 -5.902344 2.410156 -5.933594 2.410156 -5.957031 C 2.410156 -6.074219 2.316406 -6.175781 2.167969 -6.214844 C 2.132812 -6.222656 2.09375 -6.230469 2.0625 -6.230469 C 1.9375 -6.230469 1.84375 -6.167969 1.804688 -6.035156 C 1.546875 -5.046875 1.042969 -4.058594 0.441406 -3.335938 C 0.390625 -3.265625 0.359375 -3.1875 0.359375 -3.117188 C 0.359375 -3.039062 0.398438 -2.964844 0.464844 -2.910156 C 0.527344 -2.847656 0.613281 -2.816406 0.691406 -2.816406 C 0.769531 -2.816406 0.847656 -2.855469 0.917969 -2.933594 C 1.261719 -3.359375 1.5625 -3.859375 1.820312 -4.386719 L 3.640625 -4.386719 L 3.640625 -2.761719 L 1.578125 -2.761719 C 1.4375 -2.761719 1.34375 -2.644531 1.34375 -2.480469 C 1.34375 -2.316406 1.4375 -2.199219 1.578125 -2.199219 L 3.640625 -2.199219 L 3.640625 -0.234375 L 0.582031 -0.234375 C 0.441406 -0.234375 0.367188 -0.117188 0.367188 0.0546875 C 0.367188 0.21875 0.441406 0.335938 0.582031 0.335938 L 7.179688 0.335938 C 7.320312 0.335938 7.402344 0.21875 7.402344 0.0546875 C 7.402344 -0.117188 7.320312 -0.234375 7.179688 -0.234375 Z "/>
</g>
<g id="glyph-0-16">
<path d="M 4.425781 -2.023438 C 4.394531 -2.441406 4.363281 -2.832031 4.339844 -3.25 C 5.125 -3.28125 5.824219 -3.34375 6.546875 -3.445312 C 6.695312 -3.46875 6.796875 -3.570312 6.796875 -3.726562 C 6.796875 -3.742188 6.796875 -3.757812 6.796875 -3.78125 C 6.773438 -3.933594 6.679688 -4.035156 6.53125 -4.035156 C 6.515625 -4.035156 6.5 -4.035156 6.484375 -4.035156 C 5.761719 -3.933594 5.070312 -3.875 4.316406 -3.835938 C 4.300781 -4.191406 4.285156 -4.496094 4.285156 -4.796875 C 5.117188 -4.828125 5.855469 -4.890625 6.601562 -4.992188 C 6.757812 -5.015625 6.84375 -5.125 6.84375 -5.257812 C 6.84375 -5.28125 6.84375 -5.304688 6.835938 -5.328125 C 6.8125 -5.484375 6.726562 -5.578125 6.570312 -5.578125 C 6.546875 -5.578125 6.523438 -5.578125 6.492188 -5.570312 C 5.785156 -5.476562 5.078125 -5.421875 4.285156 -5.398438 C 4.277344 -5.621094 4.277344 -5.847656 4.277344 -6.097656 C 4.277344 -6.308594 4.183594 -6.394531 3.988281 -6.394531 C 3.78125 -6.394531 3.679688 -6.300781 3.679688 -6.113281 C 3.679688 -5.855469 3.679688 -5.609375 3.679688 -5.390625 C 3.429688 -5.382812 3.179688 -5.382812 2.933594 -5.382812 C 2.253906 -5.382812 1.625 -5.398438 1.214844 -5.421875 C 1.207031 -5.421875 1.207031 -5.421875 1.199219 -5.421875 C 1.027344 -5.421875 0.925781 -5.3125 0.910156 -5.15625 C 0.910156 -5.140625 0.910156 -5.125 0.910156 -5.117188 C 0.910156 -4.96875 0.988281 -4.835938 1.167969 -4.820312 C 1.570312 -4.796875 2.207031 -4.78125 2.972656 -4.78125 C 3.21875 -4.78125 3.453125 -4.78125 3.695312 -4.789062 C 3.703125 -4.449219 3.710938 -4.121094 3.726562 -3.820312 C 3.421875 -3.804688 3.117188 -3.804688 2.816406 -3.804688 C 2.285156 -3.804688 1.882812 -3.820312 1.320312 -3.851562 C 1.3125 -3.851562 1.3125 -3.851562 1.304688 -3.851562 C 1.144531 -3.851562 1.042969 -3.742188 1.027344 -3.570312 C 1.027344 -3.554688 1.027344 -3.546875 1.027344 -3.539062 C 1.027344 -3.382812 1.128906 -3.265625 1.292969 -3.25 C 1.875 -3.210938 2.292969 -3.210938 2.839844 -3.210938 C 3.148438 -3.210938 3.445312 -3.210938 3.757812 -3.226562 C 3.773438 -2.871094 3.796875 -2.519531 3.828125 -2.160156 C 3.539062 -2.214844 3.257812 -2.246094 3.003906 -2.246094 C 1.71875 -2.246094 1.089844 -1.71875 1.089844 -0.964844 C 1.089844 -0.210938 1.78125 0.289062 2.832031 0.289062 C 3.890625 0.289062 4.472656 -0.0859375 4.472656 -1.050781 C 4.472656 -1.152344 4.472656 -1.277344 4.464844 -1.382812 C 4.589844 -1.328125 4.714844 -1.269531 4.820312 -1.222656 C 5.359375 -0.949219 5.933594 -0.597656 6.410156 -0.164062 C 6.480469 -0.101562 6.554688 -0.0703125 6.640625 -0.0703125 C 6.742188 -0.0703125 6.84375 -0.117188 6.914062 -0.210938 C 6.960938 -0.273438 6.984375 -0.34375 6.984375 -0.414062 C 6.984375 -0.503906 6.9375 -0.605469 6.851562 -0.691406 C 6.308594 -1.167969 5.609375 -1.554688 4.984375 -1.820312 C 4.804688 -1.898438 4.636719 -1.960938 4.425781 -2.023438 Z M 3.859375 -1.546875 C 3.867188 -1.4375 3.867188 -1.328125 3.867188 -1.222656 C 3.875 -0.511719 3.523438 -0.3125 2.792969 -0.3125 C 2.160156 -0.3125 1.710938 -0.535156 1.710938 -0.957031 C 1.710938 -1.40625 2.085938 -1.679688 2.957031 -1.679688 C 3.242188 -1.679688 3.5625 -1.632812 3.859375 -1.546875 Z "/>
</g>
<g id="glyph-0-17">
<path d="M 2.644531 -4.503906 C 2.722656 -4.574219 2.761719 -4.660156 2.761719 -4.746094 C 2.761719 -4.875 2.652344 -4.984375 2.472656 -4.984375 C 2.464844 -4.984375 2.457031 -4.984375 2.449219 -4.984375 C 2.464844 -5.367188 2.480469 -5.722656 2.503906 -6.097656 C 2.503906 -6.105469 2.503906 -6.113281 2.503906 -6.113281 C 2.503906 -6.308594 2.386719 -6.402344 2.207031 -6.402344 C 2.199219 -6.402344 2.191406 -6.402344 2.183594 -6.402344 C 2 -6.402344 1.882812 -6.300781 1.882812 -6.105469 C 1.867188 -5.699219 1.851562 -5.3125 1.84375 -4.945312 C 1.460938 -4.914062 1.050781 -4.890625 0.652344 -4.851562 C 0.511719 -4.835938 0.414062 -4.707031 0.414062 -4.535156 C 0.414062 -4.519531 0.414062 -4.511719 0.414062 -4.496094 C 0.421875 -4.347656 0.535156 -4.238281 0.691406 -4.238281 C 0.699219 -4.238281 0.714844 -4.238281 0.722656 -4.238281 C 1.105469 -4.277344 1.492188 -4.308594 1.828125 -4.339844 C 1.8125 -3.902344 1.804688 -3.515625 1.796875 -3.101562 C 1.292969 -2.558594 0.808594 -1.953125 0.40625 -1.4375 C 0.351562 -1.367188 0.320312 -1.285156 0.320312 -1.207031 C 0.320312 -1.121094 0.359375 -1.035156 0.429688 -0.972656 C 0.488281 -0.917969 0.566406 -0.886719 0.636719 -0.886719 C 0.730469 -0.886719 0.816406 -0.925781 0.894531 -1.027344 C 1.097656 -1.296875 1.351562 -1.609375 1.578125 -1.929688 C 1.65625 -2.039062 1.734375 -2.140625 1.820312 -2.308594 C 1.789062 -2 1.78125 -1.765625 1.78125 -1.570312 C 1.78125 -1.4375 1.78125 -1.285156 1.78125 -1.113281 C 1.78125 -0.699219 1.789062 -0.21875 1.789062 0.226562 C 1.789062 0.398438 1.9375 0.496094 2.101562 0.496094 C 2.109375 0.496094 2.109375 0.496094 2.117188 0.496094 C 2.308594 0.496094 2.425781 0.390625 2.425781 0.21875 C 2.417969 -0.527344 2.402344 -1.253906 2.402344 -1.976562 C 2.402344 -2.277344 2.402344 -2.574219 2.410156 -2.878906 C 2.753906 -3.257812 3.148438 -3.664062 3.445312 -3.910156 C 4.074219 -4.433594 4.527344 -4.683594 4.976562 -4.683594 C 5.359375 -4.683594 5.5625 -4.464844 5.5625 -4.074219 C 5.5625 -3.789062 5.507812 -3.414062 5.398438 -2.855469 C 5.234375 -2.03125 5.171875 -1.46875 5.171875 -1.105469 C 5.171875 -0.359375 5.609375 -0.015625 6.199219 -0.015625 C 6.820312 -0.015625 7.265625 -0.359375 7.566406 -1.304688 C 7.582031 -1.351562 7.589844 -1.398438 7.589844 -1.4375 C 7.589844 -1.5625 7.519531 -1.664062 7.386719 -1.710938 C 7.347656 -1.726562 7.304688 -1.734375 7.265625 -1.734375 C 7.140625 -1.734375 7.039062 -1.65625 6.992188 -1.515625 C 6.773438 -0.871094 6.546875 -0.675781 6.246094 -0.675781 C 5.980469 -0.675781 5.824219 -0.808594 5.824219 -1.191406 C 5.824219 -1.492188 5.902344 -2.023438 6.066406 -2.886719 C 6.175781 -3.460938 6.222656 -3.796875 6.222656 -4.199219 C 6.222656 -4.835938 5.792969 -5.28125 5.070312 -5.28125 C 4.503906 -5.28125 3.964844 -5.015625 3.304688 -4.496094 C 3.085938 -4.324219 2.839844 -4.089844 2.628906 -3.882812 C 2.542969 -3.796875 2.449219 -3.679688 2.378906 -3.585938 C 2.402344 -3.71875 2.410156 -3.8125 2.417969 -3.933594 C 2.417969 -4.027344 2.417969 -4.167969 2.425781 -4.308594 Z "/>
</g>
<g id="glyph-0-18">
<path d="M 2.917969 -3.265625 C 3.132812 -3.390625 3.398438 -3.570312 3.617188 -3.71875 C 4.246094 -4.136719 4.976562 -4.699219 5.644531 -5.320312 C 5.746094 -5.421875 5.792969 -5.53125 5.792969 -5.636719 C 5.792969 -5.722656 5.769531 -5.792969 5.730469 -5.863281 C 5.652344 -5.996094 5.523438 -6.058594 5.34375 -6.058594 C 5.320312 -6.058594 5.296875 -6.058594 5.273438 -6.058594 C 4.238281 -5.988281 2.910156 -5.949219 1.859375 -5.949219 C 1.679688 -5.949219 1.585938 -5.808594 1.585938 -5.628906 C 1.585938 -5.445312 1.710938 -5.328125 1.875 -5.328125 C 2.871094 -5.335938 4.058594 -5.382812 4.90625 -5.453125 C 3.925781 -4.589844 2.199219 -3.320312 0.917969 -2.535156 C 0.800781 -2.472656 0.738281 -2.355469 0.738281 -2.238281 C 0.738281 -2.175781 0.753906 -2.125 0.792969 -2.070312 C 0.855469 -1.96875 0.964844 -1.921875 1.074219 -1.921875 C 1.144531 -1.921875 1.214844 -1.9375 1.285156 -1.976562 C 2.558594 -2.769531 3.5 -3.109375 4.535156 -3.109375 C 5.636719 -3.109375 6.246094 -2.574219 6.246094 -1.835938 C 6.246094 -1.113281 5.652344 -0.621094 4.859375 -0.433594 C 4.730469 -1.460938 4.035156 -1.96875 3.195312 -1.96875 C 2.433594 -1.96875 1.929688 -1.523438 1.929688 -0.917969 C 1.929688 -0.195312 2.675781 0.289062 3.828125 0.289062 C 5.722656 0.289062 6.914062 -0.535156 6.914062 -1.84375 C 6.914062 -2.902344 6.058594 -3.640625 4.660156 -3.640625 C 4.105469 -3.640625 3.539062 -3.507812 2.933594 -3.234375 Z M 4.253906 -0.296875 C 4.066406 -0.28125 3.875 -0.28125 3.6875 -0.28125 C 2.996094 -0.289062 2.527344 -0.582031 2.527344 -0.941406 C 2.527344 -1.230469 2.761719 -1.4375 3.164062 -1.4375 C 3.703125 -1.4375 4.191406 -1.058594 4.253906 -0.296875 Z "/>
</g>
</g>
<image id="source-155" x="0" y="0" width="0" height="0"/>
<mask id="mask-0">
<use xlink:href="#source-155"/>
</mask>
</defs>
<g fill="rgb(100%, 100%, 100%)" fill-opacity="1">
<use xlink:href="#glyph-0-0" x="30" y="26.84375"/>
<use xlink:href="#glyph-0-1" x="38" y="26.84375"/>
<use xlink:href="#glyph-0-2" x="41" y="26.84375"/>
</g>
<g fill="rgb(100%, 100%, 100%)" fill-opacity="1">
<use xlink:href="#glyph-0-3" x="49" y="26.84375"/>
</g>
<g fill="rgb(100%, 100%, 100%)" fill-opacity="1">
<use xlink:href="#glyph-0-4" x="57" y="26.84375"/>
</g>
<g fill="rgb(100%, 100%, 100%)" fill-opacity="1">
<use xlink:href="#glyph-0-5" x="65" y="26.84375"/>
</g>
<g fill="rgb(100%, 100%, 100%)" fill-opacity="1">
<use xlink:href="#glyph-0-6" x="73" y="26.84375"/>
</g>
<g fill="rgb(100%, 100%, 100%)" fill-opacity="1">
<use xlink:href="#glyph-0-7" x="81" y="26.84375"/>
<use xlink:href="#glyph-0-8" x="89" y="26.84375"/>
<use xlink:href="#glyph-0-9" x="97" y="26.84375"/>
<use xlink:href="#glyph-0-10" x="104" y="26.84375"/>
</g>
<g fill="rgb(100%, 100%, 100%)" fill-opacity="1">
<use xlink:href="#glyph-0-11" x="112" y="26.84375"/>
</g>
<g fill="rgb(100%, 100%, 100%)" fill-opacity="1">
<use xlink:href="#glyph-0-3" x="120" y="26.84375"/>
</g>
<g fill="rgb(100%, 100%, 100%)" fill-opacity="1">
<use xlink:href="#glyph-0-12" x="128" y="26.84375"/>
<use xlink:href="#glyph-0-13" x="136" y="26.84375"/>
</g>
<g fill="rgb(100%, 100%, 100%)" fill-opacity="1">
<use xlink:href="#glyph-0-14" x="144" y="26.84375"/>
</g>
<g fill="rgb(100%, 100%, 100%)" fill-opacity="1">
<use xlink:href="#glyph-0-15" x="152" y="26.84375"/>
</g>
<g fill="rgb(100%, 100%, 100%)" fill-opacity="1">
<use xlink:href="#glyph-0-16" x="160" y="26.84375"/>
<use xlink:href="#glyph-0-17" x="168" y="26.84375"/>
<use xlink:href="#glyph-0-18" x="176" y="26.84375"/>
</g>
</svg>
