<?xml version="1.0" encoding="UTF-8"?>
<svg xmlns="http://www.w3.org/2000/svg" xmlns:xlink="http://www.w3.org/1999/xlink" width="600" height="400" viewBox="0 0 600 400">
<defs>
<g>
<g id="glyph-0-0">
<path d="M 2.726562 -0.394531 C 2.753906 -0.332031 2.78125 -0.265625 2.808594 -0.214844 C 2.847656 -0.140625 2.914062 -0.101562 2.992188 -0.101562 C 3.035156 -0.101562 3.082031 -0.113281 3.125 -0.132812 C 3.226562 -0.1875 3.273438 -0.265625 3.273438 -0.359375 C 3.273438 -0.40625 3.261719 -0.453125 3.238281 -0.492188 C 3.195312 -0.59375 3.160156 -0.679688 3.125 -0.761719 C 3.585938 -1.238281 4.027344 -2.054688 4.246094 -2.878906 C 5.027344 -2.78125 5.441406 -2.300781 5.441406 -1.632812 C 5.441406 -0.828125 4.753906 -0.207031 3.566406 -0.148438 C 3.433594 -0.140625 3.332031 -0.0546875 3.332031 0.101562 C 3.332031 0.101562 3.332031 0.105469 3.332031 0.113281 C 3.339844 0.253906 3.441406 0.367188 3.601562 0.367188 C 3.605469 0.367188 3.605469 0.367188 3.613281 0.367188 C 5.046875 0.3125 6 -0.527344 6 -1.605469 C 6 -2.5 5.445312 -3.152344 4.359375 -3.320312 C 4.378906 -3.40625 4.398438 -3.492188 4.414062 -3.574219 C 4.414062 -3.585938 4.414062 -3.601562 4.414062 -3.613281 C 4.414062 -3.726562 4.332031 -3.808594 4.199219 -3.820312 C 4.179688 -3.828125 4.160156 -3.828125 4.148438 -3.828125 C 4.027344 -3.828125 3.945312 -3.765625 3.925781 -3.660156 C 3.914062 -3.582031 3.894531 -3.480469 3.867188 -3.367188 C 3.378906 -3.367188 3 -3.300781 2.726562 -3.226562 C 2.726562 -3.285156 2.726562 -3.347656 2.726562 -3.40625 C 2.726562 -3.660156 2.734375 -3.90625 2.738281 -4.152344 C 3.652344 -4.1875 4.5 -4.246094 5.242188 -4.347656 C 5.394531 -4.367188 5.472656 -4.453125 5.472656 -4.585938 C 5.472656 -4.601562 5.472656 -4.613281 5.472656 -4.632812 C 5.453125 -4.773438 5.367188 -4.855469 5.234375 -4.855469 C 5.21875 -4.855469 5.199219 -4.855469 5.1875 -4.855469 C 4.445312 -4.738281 3.632812 -4.679688 2.78125 -4.648438 C 2.792969 -4.875 2.808594 -5.082031 2.828125 -5.273438 C 2.828125 -5.285156 2.828125 -5.300781 2.828125 -5.308594 C 2.828125 -5.433594 2.761719 -5.507812 2.601562 -5.519531 C 2.585938 -5.519531 2.582031 -5.519531 2.566406 -5.519531 C 2.421875 -5.519531 2.328125 -5.433594 2.3125 -5.308594 C 2.292969 -5.101562 2.28125 -4.859375 2.273438 -4.625 C 1.972656 -4.621094 1.679688 -4.621094 1.394531 -4.621094 C 1.28125 -4.621094 1.160156 -4.621094 1.046875 -4.621094 C 0.898438 -4.621094 0.8125 -4.519531 0.8125 -4.378906 C 0.8125 -4.21875 0.894531 -4.125 1.066406 -4.121094 C 1.460938 -4.121094 1.875 -4.125 2.246094 -4.132812 C 2.238281 -3.875 2.234375 -3.605469 2.234375 -3.339844 C 2.234375 -3.238281 2.234375 -3.148438 2.238281 -3.054688 C 1.308594 -2.640625 0.640625 -1.847656 0.640625 -0.960938 C 0.640625 -0.308594 1.027344 0.0742188 1.546875 0.0742188 C 1.898438 0.0742188 2.273438 -0.0351562 2.726562 -0.394531 Z M 2.554688 -0.886719 C 2.195312 -0.566406 1.859375 -0.445312 1.613281 -0.445312 C 1.339844 -0.445312 1.148438 -0.625 1.148438 -0.992188 C 1.148438 -1.546875 1.535156 -2.171875 2.265625 -2.566406 C 2.300781 -1.953125 2.398438 -1.351562 2.554688 -0.886719 Z M 2.945312 -1.28125 C 2.828125 -1.714844 2.753906 -2.226562 2.738281 -2.78125 C 2.925781 -2.851562 3.285156 -2.941406 3.773438 -2.941406 C 3.601562 -2.292969 3.285156 -1.699219 2.945312 -1.28125 Z "/>
</g>
<g id="glyph-0-1">
<path d="M 4.582031 -4.558594 C 4.539062 -4.574219 4.5 -4.582031 4.460938 -4.582031 C 4.359375 -4.582031 4.273438 -4.535156 4.214844 -4.441406 C 4.1875 -4.394531 4.171875 -4.339844 4.171875 -4.285156 C 4.171875 -4.199219 4.214844 -4.121094 4.300781 -4.085938 C 4.800781 -3.886719 5.300781 -3.625 5.695312 -3.351562 C 5.746094 -3.320312 5.800781 -3.300781 5.859375 -3.300781 C 5.945312 -3.300781 6.035156 -3.347656 6.085938 -3.425781 C 6.113281 -3.472656 6.128906 -3.527344 6.128906 -3.582031 C 6.128906 -3.667969 6.085938 -3.765625 5.992188 -3.828125 C 5.621094 -4.082031 5.085938 -4.367188 4.582031 -4.558594 Z M 2.292969 -3.828125 C 2.695312 -3.859375 3.085938 -3.894531 3.433594 -3.945312 C 3.59375 -3.972656 3.671875 -4.074219 3.671875 -4.199219 C 3.671875 -4.214844 3.671875 -4.226562 3.671875 -4.238281 C 3.648438 -4.378906 3.566406 -4.460938 3.433594 -4.460938 C 3.414062 -4.460938 3.394531 -4.460938 3.375 -4.453125 C 3.09375 -4.414062 2.78125 -4.386719 2.453125 -4.359375 C 2.527344 -4.648438 2.59375 -4.933594 2.652344 -5.207031 C 2.660156 -5.242188 2.660156 -5.265625 2.660156 -5.292969 C 2.660156 -5.425781 2.574219 -5.5 2.425781 -5.527344 C 2.398438 -5.535156 2.378906 -5.535156 2.359375 -5.535156 C 2.226562 -5.535156 2.125 -5.460938 2.113281 -5.3125 C 2.046875 -4.972656 1.964844 -4.640625 1.875 -4.3125 C 1.585938 -4.300781 1.285156 -4.292969 1 -4.292969 C 0.898438 -4.292969 0.808594 -4.292969 0.714844 -4.292969 C 0.558594 -4.292969 0.464844 -4.195312 0.464844 -4.035156 C 0.464844 -3.875 0.546875 -3.773438 0.699219 -3.773438 C 0.785156 -3.773438 0.875 -3.773438 0.953125 -3.773438 C 1.214844 -3.773438 1.472656 -3.78125 1.71875 -3.792969 C 1.445312 -2.894531 1 -1.941406 0.539062 -1.160156 C 0.5 -1.09375 0.480469 -1.019531 0.480469 -0.960938 C 0.480469 -0.875 0.519531 -0.792969 0.605469 -0.738281 C 0.671875 -0.699219 0.734375 -0.679688 0.792969 -0.679688 C 0.886719 -0.679688 0.972656 -0.738281 1.039062 -0.851562 C 1.539062 -1.726562 1.972656 -2.78125 2.292969 -3.828125 Z M 4.832031 -1.558594 C 4.78125 -2.035156 4.753906 -2.5 4.753906 -3.074219 C 4.753906 -3.261719 4.640625 -3.347656 4.480469 -3.347656 C 4.332031 -3.347656 4.21875 -3.265625 4.21875 -3.074219 C 4.21875 -2.640625 4.253906 -2.113281 4.292969 -1.738281 C 4.019531 -1.8125 3.746094 -1.851562 3.46875 -1.851562 C 2.640625 -1.851562 2.074219 -1.394531 2.074219 -0.753906 C 2.074219 -0.125 2.625 0.3125 3.460938 0.3125 C 4.367188 0.3125 4.832031 -0.0273438 4.867188 -0.753906 C 4.867188 -0.8125 4.867188 -0.898438 4.855469 -0.980469 C 5.132812 -0.820312 5.460938 -0.546875 5.71875 -0.285156 C 5.78125 -0.234375 5.855469 -0.199219 5.921875 -0.199219 C 5.988281 -0.199219 6.054688 -0.234375 6.113281 -0.292969 C 6.160156 -0.347656 6.1875 -0.414062 6.1875 -0.480469 C 6.1875 -0.554688 6.152344 -0.632812 6.085938 -0.699219 C 5.753906 -1.035156 5.28125 -1.347656 4.832031 -1.558594 Z M 4.332031 -1.207031 C 4.347656 -1.074219 4.347656 -0.980469 4.347656 -0.875 C 4.347656 -0.398438 4.039062 -0.1875 3.472656 -0.1875 C 2.925781 -0.1875 2.601562 -0.394531 2.601562 -0.761719 C 2.601562 -1.125 2.941406 -1.378906 3.480469 -1.378906 C 3.765625 -1.378906 4.066406 -1.328125 4.332031 -1.207031 Z "/>
</g>
<g id="glyph-0-2">
<path d="M 1.859375 -3.8125 C 1.546875 -2.59375 1.09375 -1.328125 0.605469 -0.320312 C 0.578125 -0.261719 0.566406 -0.199219 0.566406 -0.152344 C 0.566406 -0.046875 0.621094 0.0390625 0.714844 0.0859375 C 0.765625 0.113281 0.8125 0.125 0.867188 0.125 C 0.964844 0.125 1.058594 0.0664062 1.121094 -0.0546875 C 1.632812 -1.140625 2.085938 -2.535156 2.421875 -3.855469 C 2.960938 -3.894531 3.488281 -3.953125 3.914062 -4.027344 C 4.027344 -4.046875 4.105469 -4.148438 4.105469 -4.265625 C 4.105469 -4.285156 4.105469 -4.3125 4.101562 -4.332031 C 4.082031 -4.480469 3.988281 -4.546875 3.859375 -4.546875 C 3.839844 -4.546875 3.8125 -4.546875 3.792969 -4.539062 C 3.441406 -4.472656 3 -4.421875 2.554688 -4.378906 C 2.621094 -4.667969 2.671875 -4.941406 2.71875 -5.199219 C 2.726562 -5.21875 2.726562 -5.242188 2.726562 -5.253906 C 2.726562 -5.375 2.640625 -5.472656 2.488281 -5.488281 C 2.464844 -5.492188 2.445312 -5.492188 2.425781 -5.492188 C 2.285156 -5.492188 2.199219 -5.425781 2.171875 -5.28125 C 2.121094 -4.96875 2.054688 -4.652344 1.980469 -4.339844 C 1.546875 -4.3125 1.101562 -4.308594 0.738281 -4.308594 C 0.574219 -4.308594 0.492188 -4.207031 0.488281 -4.058594 C 0.488281 -4.054688 0.488281 -4.046875 0.488281 -4.039062 C 0.488281 -3.878906 0.566406 -3.785156 0.726562 -3.78125 C 0.773438 -3.78125 0.8125 -3.78125 0.859375 -3.78125 C 1.167969 -3.78125 1.519531 -3.800781 1.859375 -3.8125 Z M 5.039062 -3.59375 C 4.492188 -3.59375 3.832031 -3.527344 3.339844 -3.433594 C 3.199219 -3.40625 3.125 -3.300781 3.125 -3.179688 C 3.125 -3.160156 3.125 -3.148438 3.132812 -3.125 C 3.148438 -2.980469 3.253906 -2.894531 3.394531 -2.894531 C 3.414062 -2.894531 3.433594 -2.894531 3.453125 -2.898438 C 3.90625 -2.988281 4.535156 -3.039062 5.007812 -3.039062 C 5.195312 -3.039062 5.425781 -3.039062 5.601562 -3.035156 C 5.605469 -3.035156 5.621094 -3.035156 5.625 -3.035156 C 5.78125 -3.035156 5.878906 -3.140625 5.878906 -3.292969 C 5.878906 -3.445312 5.785156 -3.566406 5.621094 -3.574219 C 5.414062 -3.585938 5.214844 -3.59375 5.039062 -3.59375 Z M 3.394531 -1.507812 C 3.441406 -1.554688 3.460938 -1.605469 3.460938 -1.660156 C 3.460938 -1.734375 3.421875 -1.8125 3.351562 -1.851562 C 3.308594 -1.878906 3.261719 -1.898438 3.207031 -1.898438 C 3.148438 -1.898438 3.085938 -1.875 3.027344 -1.820312 C 2.773438 -1.585938 2.621094 -1.226562 2.621094 -0.925781 C 2.621094 -0.507812 2.773438 -0.21875 3.152344 -0.0273438 C 3.441406 0.121094 3.859375 0.1875 4.394531 0.1875 C 4.960938 0.1875 5.507812 0.140625 5.898438 0.046875 C 6.074219 0.0078125 6.148438 -0.101562 6.148438 -0.234375 C 6.148438 -0.253906 6.148438 -0.273438 6.140625 -0.300781 C 6.121094 -0.425781 6.035156 -0.507812 5.894531 -0.507812 C 5.859375 -0.507812 5.832031 -0.507812 5.800781 -0.5 C 5.421875 -0.421875 4.867188 -0.367188 4.355469 -0.367188 C 3.941406 -0.367188 3.632812 -0.398438 3.441406 -0.492188 C 3.238281 -0.59375 3.140625 -0.734375 3.140625 -0.960938 C 3.140625 -1.160156 3.21875 -1.332031 3.394531 -1.507812 Z "/>
</g>
<g id="glyph-0-3">
<path d="M 3.632812 -4.472656 C 4.8125 -4.433594 5.554688 -3.613281 5.554688 -2.488281 C 5.554688 -1.785156 5.246094 -1.246094 4.828125 -0.933594 C 4.492188 -0.6875 3.980469 -0.519531 3.492188 -0.453125 C 3.339844 -0.425781 3.253906 -0.328125 3.253906 -0.191406 C 3.253906 -0.171875 3.253906 -0.148438 3.261719 -0.125 C 3.285156 0.0390625 3.398438 0.105469 3.539062 0.105469 C 3.558594 0.105469 3.585938 0.105469 3.613281 0.101562 C 4.148438 0.0195312 4.625 -0.132812 5.011719 -0.378906 C 5.707031 -0.820312 6.113281 -1.535156 6.113281 -2.472656 C 6.113281 -3.941406 5.074219 -4.96875 3.5 -4.96875 C 1.679688 -4.96875 0.519531 -3.765625 0.519531 -2.105469 C 0.519531 -0.988281 1.074219 -0.3125 1.765625 -0.3125 C 2.039062 -0.3125 2.320312 -0.398438 2.535156 -0.605469 C 2.765625 -0.828125 2.960938 -1.125 3.195312 -1.8125 C 3.425781 -2.527344 3.574219 -3.460938 3.632812 -4.472656 Z M 3.082031 -4.453125 C 3.035156 -3.539062 2.867188 -2.625 2.660156 -2 C 2.5 -1.511719 2.347656 -1.226562 2.199219 -1.085938 C 2.058594 -0.945312 1.90625 -0.894531 1.753906 -0.894531 C 1.398438 -0.894531 1.058594 -1.3125 1.058594 -2.113281 C 1.058594 -3.40625 1.859375 -4.339844 3.082031 -4.453125 Z "/>
</g>
<g id="glyph-0-4">
<path d="M 3.527344 -3.945312 L 3.527344 -4.535156 L 6.171875 -4.535156 C 6.285156 -4.535156 6.355469 -4.625 6.355469 -4.753906 C 6.355469 -4.886719 6.285156 -4.980469 6.171875 -4.980469 L 3.527344 -4.980469 L 3.527344 -5.488281 C 3.527344 -5.605469 3.425781 -5.671875 3.265625 -5.671875 C 3.113281 -5.671875 3.019531 -5.605469 3.019531 -5.488281 L 3.019531 -4.980469 L 0.585938 -4.980469 C 0.472656 -4.980469 0.40625 -4.878906 0.40625 -4.753906 C 0.40625 -4.625 0.472656 -4.535156 0.585938 -4.535156 L 3.019531 -4.535156 L 3.019531 -3.945312 L 0.992188 -3.945312 C 0.878906 -3.945312 0.8125 -3.847656 0.8125 -3.726562 C 0.8125 -3.601562 0.878906 -3.5 0.992188 -3.5 L 5.71875 -3.5 C 5.832031 -3.5 5.898438 -3.601562 5.898438 -3.726562 C 5.898438 -3.847656 5.832031 -3.945312 5.71875 -3.945312 Z M 5.132812 -1.152344 C 5.519531 -1.152344 5.707031 -1.308594 5.707031 -1.695312 L 5.707031 -2.472656 C 5.707031 -2.859375 5.519531 -3.007812 5.132812 -3.007812 L 1.546875 -3.007812 C 1.167969 -3.007812 0.980469 -2.859375 0.980469 -2.472656 C 0.980469 -2.160156 0.964844 -1.886719 0.945312 -1.632812 C 0.878906 -0.808594 0.707031 -0.332031 0.332031 0.121094 C 0.292969 0.171875 0.265625 0.238281 0.265625 0.308594 C 0.265625 0.378906 0.300781 0.445312 0.359375 0.5 C 0.414062 0.535156 0.464844 0.554688 0.527344 0.554688 C 0.613281 0.554688 0.695312 0.511719 0.753906 0.445312 C 1.085938 0.046875 1.320312 -0.507812 1.40625 -1.152344 Z M 3.535156 -1.59375 L 3.535156 -2.582031 L 4.96875 -2.582031 C 5.113281 -2.582031 5.199219 -2.539062 5.199219 -2.386719 L 5.199219 -1.785156 C 5.199219 -1.632812 5.113281 -1.59375 4.96875 -1.59375 Z M 3.039062 -1.59375 L 1.460938 -1.59375 C 1.472656 -1.78125 1.488281 -2.035156 1.488281 -2.386719 C 1.488281 -2.539062 1.574219 -2.582031 1.71875 -2.582031 L 3.039062 -2.582031 Z "/>
</g>
<g id="glyph-0-5">
<path d="M 6.1875 -5.6875 C 6.132812 -5.734375 6.066406 -5.761719 6 -5.761719 C 5.925781 -5.761719 5.847656 -5.726562 5.785156 -5.660156 C 5.125 -4.914062 4.507812 -3.953125 4.507812 -2.535156 C 4.507812 -1.113281 5.132812 -0.140625 5.785156 0.585938 C 5.855469 0.660156 5.925781 0.695312 6.007812 0.695312 C 6.066406 0.695312 6.132812 0.671875 6.1875 0.625 C 6.253906 0.574219 6.292969 0.507812 6.292969 0.425781 C 6.292969 0.375 6.265625 0.308594 6.214844 0.253906 C 5.625 -0.351562 5.054688 -1.300781 5.054688 -2.535156 C 5.054688 -3.761719 5.621094 -4.699219 6.214844 -5.3125 C 6.265625 -5.375 6.292969 -5.433594 6.292969 -5.492188 C 6.292969 -5.566406 6.253906 -5.632812 6.1875 -5.6875 Z "/>
</g>
<g id="glyph-0-6">
<path d="M 3.148438 -1.652344 L 3.558594 0.265625 C 3.59375 0.40625 3.6875 0.472656 3.808594 0.472656 C 3.839844 0.472656 3.875 0.464844 3.914062 0.460938 C 4.054688 0.425781 4.125 0.351562 4.125 0.226562 C 4.125 0.207031 4.125 0.179688 4.121094 0.152344 L 3.707031 -1.746094 L 5.792969 -2.082031 C 5.921875 -2.101562 5.992188 -2.199219 5.992188 -2.328125 C 5.992188 -2.347656 5.988281 -2.367188 5.988281 -2.386719 C 5.960938 -2.519531 5.875 -2.613281 5.746094 -2.613281 C 5.734375 -2.613281 5.714844 -2.605469 5.699219 -2.605469 L 3.59375 -2.265625 L 3.308594 -3.582031 L 5.082031 -3.867188 C 5.195312 -3.886719 5.265625 -3.972656 5.265625 -4.09375 C 5.265625 -4.113281 5.261719 -4.132812 5.253906 -4.160156 C 5.226562 -4.285156 5.148438 -4.386719 5.019531 -4.386719 L 4.988281 -4.386719 L 3.195312 -4.09375 L 2.988281 -5.035156 C 2.953125 -5.179688 2.875 -5.242188 2.753906 -5.242188 C 2.726562 -5.242188 2.699219 -5.242188 2.667969 -5.234375 C 2.519531 -5.207031 2.433594 -5.121094 2.433594 -4.992188 C 2.433594 -4.972656 2.433594 -4.945312 2.441406 -4.925781 L 2.640625 -4.007812 L 0.714844 -3.699219 C 0.601562 -3.679688 0.527344 -3.574219 0.527344 -3.453125 C 0.527344 -3.433594 0.527344 -3.414062 0.535156 -3.394531 C 0.554688 -3.261719 0.648438 -3.179688 0.765625 -3.179688 C 0.78125 -3.179688 0.792969 -3.179688 0.808594 -3.179688 L 2.746094 -3.492188 L 3.035156 -2.171875 L 0.71875 -1.800781 C 0.605469 -1.78125 0.535156 -1.671875 0.535156 -1.546875 C 0.535156 -1.527344 0.535156 -1.507812 0.539062 -1.488281 C 0.558594 -1.351562 0.667969 -1.28125 0.785156 -1.28125 C 0.800781 -1.28125 0.8125 -1.28125 0.828125 -1.28125 Z M 4.96875 -5.234375 C 4.96875 -5.171875 4.992188 -5.121094 5.035156 -5.074219 C 5.21875 -4.867188 5.421875 -4.59375 5.558594 -4.347656 C 5.601562 -4.265625 5.652344 -4.234375 5.734375 -4.234375 C 5.859375 -4.234375 5.953125 -4.320312 5.953125 -4.421875 C 5.953125 -4.507812 5.925781 -4.554688 5.90625 -4.59375 C 5.78125 -4.8125 5.539062 -5.132812 5.332031 -5.339844 C 5.28125 -5.394531 5.234375 -5.414062 5.160156 -5.414062 C 5.054688 -5.414062 4.96875 -5.320312 4.96875 -5.234375 Z M 5.699219 -5.667969 C 5.699219 -5.585938 5.71875 -5.554688 5.78125 -5.492188 C 5.960938 -5.300781 6.132812 -5.039062 6.28125 -4.785156 C 6.328125 -4.714844 6.375 -4.679688 6.453125 -4.679688 C 6.582031 -4.679688 6.660156 -4.785156 6.660156 -4.867188 C 6.660156 -4.941406 6.640625 -4.992188 6.621094 -5.035156 C 6.5 -5.246094 6.246094 -5.59375 6.074219 -5.761719 C 6.011719 -5.8125 5.96875 -5.839844 5.894531 -5.839844 C 5.800781 -5.839844 5.699219 -5.753906 5.699219 -5.667969 Z "/>
</g>
<g id="glyph-0-7">
<path d="M 1.519531 -4 L 0.5 -4 C 0.320312 -4 0.246094 -3.894531 0.246094 -3.746094 C 0.246094 -3.601562 0.320312 -3.480469 0.492188 -3.480469 L 1.519531 -3.480469 L 1.519531 -1.839844 C 1.519531 -1.671875 1.625 -1.585938 1.800781 -1.585938 C 1.964844 -1.585938 2.09375 -1.671875 2.09375 -1.839844 L 2.09375 -3.480469 L 4.273438 -3.480469 L 4.273438 -2.878906 C 4.273438 -2.09375 4.148438 -1.566406 3.878906 -1.179688 C 3.558594 -0.714844 2.921875 -0.320312 2.265625 -0.207031 C 2.113281 -0.179688 2.027344 -0.09375 2.027344 0.046875 C 2.027344 0.0664062 2.027344 0.0859375 2.035156 0.113281 C 2.058594 0.246094 2.148438 0.320312 2.292969 0.320312 C 2.320312 0.320312 2.347656 0.320312 2.378906 0.3125 C 3.199219 0.171875 3.941406 -0.261719 4.355469 -0.859375 C 4.671875 -1.328125 4.839844 -1.960938 4.839844 -2.765625 L 4.839844 -3.480469 L 5.867188 -3.480469 C 6.039062 -3.480469 6.113281 -3.601562 6.113281 -3.746094 C 6.113281 -3.894531 6.039062 -4.007812 5.859375 -4.007812 L 4.839844 -4.007812 L 4.839844 -5.066406 C 4.839844 -5.226562 4.714844 -5.320312 4.546875 -5.320312 C 4.375 -5.320312 4.273438 -5.226562 4.273438 -5.066406 L 4.273438 -4.007812 L 2.09375 -4.007812 L 2.09375 -5.066406 C 2.09375 -5.226562 1.964844 -5.320312 1.800781 -5.320312 C 1.625 -5.320312 1.519531 -5.226562 1.519531 -5.066406 Z M 5.199219 -5.308594 C 5.3125 -5.082031 5.414062 -4.800781 5.492188 -4.519531 C 5.519531 -4.425781 5.59375 -4.378906 5.671875 -4.378906 C 5.792969 -4.378906 5.886719 -4.453125 5.886719 -4.554688 C 5.886719 -4.621094 5.878906 -4.671875 5.859375 -4.738281 C 5.800781 -4.96875 5.679688 -5.253906 5.558594 -5.488281 C 5.519531 -5.566406 5.441406 -5.613281 5.355469 -5.613281 C 5.242188 -5.613281 5.160156 -5.539062 5.160156 -5.445312 C 5.160156 -5.40625 5.179688 -5.339844 5.199219 -5.308594 Z M 5.972656 -5.511719 C 6.082031 -5.320312 6.199219 -5 6.261719 -4.78125 C 6.292969 -4.660156 6.339844 -4.605469 6.441406 -4.605469 C 6.558594 -4.605469 6.640625 -4.671875 6.640625 -4.792969 C 6.640625 -4.859375 6.632812 -4.898438 6.621094 -4.945312 C 6.558594 -5.152344 6.433594 -5.480469 6.3125 -5.6875 C 6.273438 -5.761719 6.214844 -5.792969 6.128906 -5.792969 C 6.035156 -5.792969 5.945312 -5.726562 5.945312 -5.632812 C 5.945312 -5.574219 5.960938 -5.539062 5.972656 -5.511719 Z "/>
</g>
<g id="glyph-0-8">
<path d="M 3.007812 -2.625 C 3.261719 -1.964844 3.605469 -1.367188 4.085938 -0.847656 C 3.648438 -0.5 3.132812 -0.207031 2.59375 0 C 2.480469 0.0390625 2.414062 0.132812 2.414062 0.234375 C 2.414062 0.265625 2.421875 0.300781 2.433594 0.332031 C 2.480469 0.433594 2.558594 0.488281 2.652344 0.488281 C 2.695312 0.488281 2.738281 0.480469 2.78125 0.460938 C 3.386719 0.226562 3.945312 -0.113281 4.425781 -0.519531 C 4.894531 -0.113281 5.433594 0.207031 6.046875 0.445312 C 6.085938 0.464844 6.132812 0.472656 6.167969 0.472656 C 6.273438 0.472656 6.359375 0.40625 6.40625 0.308594 C 6.421875 0.265625 6.425781 0.234375 6.425781 0.191406 C 6.425781 0.09375 6.367188 0 6.261719 -0.0390625 C 5.6875 -0.253906 5.195312 -0.519531 4.785156 -0.847656 C 5.261719 -1.3125 5.632812 -1.847656 5.859375 -2.394531 C 5.898438 -2.488281 5.921875 -2.582031 5.921875 -2.667969 C 5.921875 -2.898438 5.78125 -3.082031 5.46875 -3.082031 L 4.433594 -3.082031 L 4.433594 -4.339844 L 5.6875 -4.339844 C 5.773438 -4.339844 5.8125 -4.320312 5.8125 -4.273438 C 5.8125 -4.253906 5.808594 -4.234375 5.792969 -4.207031 C 5.726562 -4.054688 5.59375 -3.867188 5.472656 -3.707031 C 5.441406 -3.660156 5.421875 -3.605469 5.421875 -3.558594 C 5.421875 -3.492188 5.460938 -3.425781 5.519531 -3.386719 C 5.566406 -3.351562 5.621094 -3.339844 5.667969 -3.339844 C 5.746094 -3.339844 5.828125 -3.378906 5.894531 -3.46875 C 6.054688 -3.667969 6.214844 -3.925781 6.308594 -4.1875 C 6.332031 -4.265625 6.347656 -4.339844 6.347656 -4.40625 C 6.347656 -4.648438 6.171875 -4.808594 5.855469 -4.808594 L 4.433594 -4.808594 L 4.433594 -5.460938 C 4.433594 -5.585938 4.339844 -5.652344 4.1875 -5.652344 C 4.035156 -5.652344 3.941406 -5.585938 3.941406 -5.460938 L 3.941406 -4.808594 L 2.839844 -4.808594 C 2.441406 -4.808594 2.238281 -4.605469 2.238281 -4.207031 L 2.238281 -3.640625 C 2.238281 -1.652344 2.058594 -0.726562 1.539062 0.078125 C 1.507812 0.132812 1.488281 0.1875 1.488281 0.238281 C 1.488281 0.320312 1.527344 0.394531 1.613281 0.441406 C 1.660156 0.464844 1.707031 0.480469 1.761719 0.480469 C 1.839844 0.480469 1.921875 0.433594 1.980469 0.339844 C 2.394531 -0.332031 2.648438 -1.199219 2.726562 -2.625 Z M 2.738281 -3.082031 C 2.746094 -3.238281 2.746094 -3.40625 2.746094 -3.582031 L 2.746094 -4.082031 C 2.746094 -4.285156 2.8125 -4.339844 2.992188 -4.339844 L 3.941406 -4.339844 L 3.941406 -3.082031 Z M 5.261719 -2.625 C 5.332031 -2.625 5.367188 -2.601562 5.367188 -2.539062 C 5.367188 -2.511719 5.359375 -2.488281 5.347656 -2.445312 C 5.167969 -1.988281 4.847656 -1.546875 4.433594 -1.152344 C 4.019531 -1.574219 3.699219 -2.074219 3.488281 -2.625 Z M 1.78125 -4.765625 C 1.546875 -5.011719 1.21875 -5.292969 0.964844 -5.460938 C 0.921875 -5.492188 0.867188 -5.507812 0.820312 -5.507812 C 0.738281 -5.507812 0.667969 -5.46875 0.605469 -5.40625 C 0.566406 -5.355469 0.539062 -5.292969 0.539062 -5.234375 C 0.539062 -5.167969 0.574219 -5.101562 0.632812 -5.058594 C 0.878906 -4.886719 1.152344 -4.652344 1.394531 -4.40625 C 1.460938 -4.339844 1.535156 -4.308594 1.605469 -4.308594 C 1.671875 -4.308594 1.746094 -4.339844 1.800781 -4.398438 C 1.847656 -4.445312 1.867188 -4.507812 1.867188 -4.566406 C 1.867188 -4.640625 1.839844 -4.707031 1.78125 -4.765625 Z M 1.5 -3.140625 C 1.234375 -3.386719 0.914062 -3.632812 0.613281 -3.8125 C 0.574219 -3.839844 0.527344 -3.855469 0.480469 -3.855469 C 0.40625 -3.855469 0.332031 -3.8125 0.273438 -3.746094 C 0.238281 -3.699219 0.21875 -3.640625 0.21875 -3.585938 C 0.21875 -3.511719 0.253906 -3.445312 0.3125 -3.40625 C 0.574219 -3.238281 0.886719 -3 1.152344 -2.753906 C 1.207031 -2.707031 1.273438 -2.679688 1.339844 -2.679688 C 1.414062 -2.679688 1.488281 -2.714844 1.539062 -2.78125 C 1.578125 -2.828125 1.601562 -2.878906 1.601562 -2.933594 C 1.601562 -3.007812 1.558594 -3.085938 1.5 -3.140625 Z M 1.480469 -1.867188 C 1.445312 -1.878906 1.40625 -1.886719 1.375 -1.886719 C 1.273438 -1.886719 1.195312 -1.832031 1.152344 -1.726562 C 0.945312 -1.152344 0.601562 -0.453125 0.253906 0.0390625 C 0.21875 0.0859375 0.207031 0.140625 0.207031 0.1875 C 0.207031 0.265625 0.246094 0.347656 0.328125 0.394531 C 0.378906 0.425781 0.441406 0.445312 0.5 0.445312 C 0.578125 0.445312 0.660156 0.40625 0.714844 0.332031 C 1.078125 -0.199219 1.414062 -0.953125 1.640625 -1.535156 C 1.652344 -1.566406 1.660156 -1.601562 1.660156 -1.632812 C 1.660156 -1.734375 1.601562 -1.820312 1.480469 -1.867188 Z "/>
</g>
<g id="glyph-0-9">
<path d="M 0.472656 -5.6875 C 0.40625 -5.632812 0.367188 -5.566406 0.367188 -5.492188 C 0.367188 -5.433594 0.394531 -5.375 0.445312 -5.3125 C 1.039062 -4.699219 1.605469 -3.761719 1.605469 -2.535156 C 1.605469 -1.300781 1.035156 -0.351562 0.445312 0.253906 C 0.394531 0.308594 0.367188 0.367188 0.367188 0.425781 C 0.367188 0.5 0.40625 0.574219 0.472656 0.625 C 0.527344 0.667969 0.59375 0.695312 0.652344 0.695312 C 0.734375 0.695312 0.808594 0.660156 0.875 0.585938 C 1.527344 -0.140625 2.152344 -1.113281 2.152344 -2.535156 C 2.152344 -3.953125 1.535156 -4.914062 0.875 -5.660156 C 0.8125 -5.726562 0.738281 -5.761719 0.660156 -5.761719 C 0.59375 -5.761719 0.527344 -5.734375 0.472656 -5.6875 Z "/>
</g>
</g>
</defs>
<g fill="rgb(69.411765%, 53.72549%, 77.647059%)" fill-opacity="1">
<use xlink:href="#glyph-0-0" x="30" y="25.867188"/>
<use xlink:href="#glyph-0-1" x="37" y="25.867188"/>
<use xlink:href="#glyph-0-2" x="44" y="25.867188"/>
<use xlink:href="#glyph-0-3" x="51" y="25.867188"/>
</g>
<g fill="rgb(69.411765%, 53.72549%, 77.647059%)" fill-opacity="1">
<use xlink:href="#glyph-0-4" x="58" y="25.867188"/>
<use xlink:href="#glyph-0-5" x="65" y="25.867188"/>
</g>
<g fill="rgb(69.411765%, 53.72549%, 77.647059%)" fill-opacity="1">
<use xlink:href="#glyph-0-6" x="72" y="25.867188"/>
<use xlink:href="#glyph-0-7" x="79" y="25.867188"/>
<use xlink:href="#glyph-0-6" x="86" y="25.867188"/>
<use xlink:href="#glyph-0-7" x="93" y="25.867188"/>
</g>
<g fill="rgb(69.411765%, 53.72549%, 77.647059%)" fill-opacity="1">
<use xlink:href="#glyph-0-3" x="100" y="25.867188"/>
</g>
<g fill="rgb(69.411765%, 53.72549%, 77.647059%)" fill-opacity="1">
<use xlink:href="#glyph-0-8" x="107" y="25.867188"/>
<use xlink:href="#glyph-0-9" x="114" y="25.867188"/>
</g>
</svg>
