<?xml version="1.0" encoding="UTF-8"?>
<svg xmlns="http://www.w3.org/2000/svg" xmlns:xlink="http://www.w3.org/1999/xlink" width="600" height="400" viewBox="0 0 600 400">
<defs>
<g>
<g id="glyph-0-0">
<path d="M 2.550781 -4.171875 L 0.910156 -4.171875 C 0.671875 -4.171875 0.511719 -4.183594 0.351562 -4.207031 L 0.351562 -3.839844 C 0.523438 -3.859375 0.683594 -3.867188 0.898438 -3.867188 L 4.640625 -3.867188 C 4.859375 -3.867188 5.011719 -3.859375 5.1875 -3.839844 L 5.1875 -4.207031 C 5.015625 -4.183594 4.871094 -4.171875 4.640625 -4.171875 L 2.90625 -4.171875 L 2.90625 -4.285156 C 2.90625 -4.429688 2.917969 -4.535156 2.9375 -4.65625 L 2.515625 -4.65625 C 2.539062 -4.527344 2.550781 -4.421875 2.550781 -4.277344 Z M 1.273438 -2.800781 C 1.273438 -2.582031 1.265625 -2.484375 1.253906 -2.367188 C 1.433594 -2.382812 1.542969 -2.390625 1.753906 -2.390625 L 3.804688 -2.390625 C 4.042969 -2.390625 4.15625 -2.382812 4.316406 -2.367188 C 4.300781 -2.488281 4.300781 -2.554688 4.300781 -2.800781 L 4.300781 -3.101562 C 4.300781 -3.289062 4.304688 -3.367188 4.316406 -3.527344 C 4.160156 -3.511719 4.0625 -3.503906 3.84375 -3.503906 L 1.785156 -3.503906 C 1.542969 -3.503906 1.398438 -3.511719 1.253906 -3.527344 C 1.265625 -3.410156 1.273438 -3.285156 1.273438 -3.105469 Z M 1.609375 -3.214844 L 3.960938 -3.214844 L 3.960938 -2.671875 L 1.609375 -2.671875 Z M 0.535156 -0.121094 C 0.535156 0.09375 0.523438 0.289062 0.5 0.4375 L 0.910156 0.4375 C 0.882812 0.25 0.878906 0.117188 0.878906 -0.128906 L 0.878906 -1.726562 L 4.683594 -1.726562 L 4.683594 -0.101562 C 4.683594 0.0117188 4.65625 0.0273438 4.457031 0.0273438 C 4.261719 0.0273438 4.050781 0.0117188 3.828125 -0.0234375 C 3.871094 0.105469 3.890625 0.171875 3.898438 0.320312 C 4.253906 0.339844 4.289062 0.339844 4.417969 0.339844 C 4.710938 0.339844 4.804688 0.320312 4.894531 0.261719 C 4.988281 0.199219 5.023438 0.105469 5.023438 -0.0820312 L 5.023438 -1.554688 C 5.023438 -1.75 5.027344 -1.871094 5.042969 -2.042969 C 4.898438 -2.027344 4.777344 -2.023438 4.503906 -2.023438 L 1.0625 -2.023438 C 0.828125 -2.023438 0.671875 -2.027344 0.511719 -2.042969 C 0.527344 -1.878906 0.535156 -1.738281 0.535156 -1.542969 Z M 3.878906 -1.003906 C 3.878906 -1.1875 3.882812 -1.273438 3.894531 -1.382812 C 3.75 -1.371094 3.617188 -1.367188 3.40625 -1.367188 L 2.070312 -1.367188 C 1.867188 -1.367188 1.75 -1.371094 1.621094 -1.382812 C 1.632812 -1.265625 1.640625 -1.15625 1.640625 -0.976562 L 1.640625 -0.421875 C 1.640625 -0.222656 1.628906 -0.078125 1.609375 0.0390625 L 1.972656 0.0390625 L 1.972656 -0.265625 L 3.382812 -0.265625 C 3.578125 -0.265625 3.75 -0.261719 3.894531 -0.25 C 3.882812 -0.359375 3.878906 -0.445312 3.878906 -0.644531 Z M 1.964844 -1.089844 L 3.554688 -1.089844 L 3.554688 -0.542969 L 1.964844 -0.542969 Z "/>
</g>
<g id="glyph-0-1">
<path d="M 0.753906 -3.9375 C 0.765625 -3.839844 0.765625 -3.824219 0.773438 -3.609375 C 0.800781 -2.246094 0.878906 -1.535156 1.070312 -1.003906 C 1.261719 -0.472656 1.550781 -0.160156 1.859375 -0.160156 C 2.253906 -0.160156 2.511719 -0.535156 2.785156 -1.503906 C 2.628906 -1.628906 2.578125 -1.679688 2.457031 -1.820312 C 2.382812 -1.445312 2.292969 -1.148438 2.167969 -0.871094 C 2.082031 -0.6875 1.988281 -0.59375 1.890625 -0.59375 C 1.679688 -0.59375 1.449219 -0.976562 1.328125 -1.542969 C 1.246094 -1.898438 1.183594 -2.660156 1.183594 -3.273438 C 1.183594 -3.578125 1.195312 -3.761719 1.222656 -3.933594 Z M 3.566406 -3.464844 C 4.214844 -2.710938 4.621094 -1.761719 4.722656 -0.726562 L 5.117188 -0.890625 C 5.015625 -1.511719 4.910156 -1.90625 4.699219 -2.371094 C 4.496094 -2.84375 4.265625 -3.210938 3.90625 -3.640625 Z "/>
</g>
<g id="glyph-0-2">
<path d="M 2.542969 -4.117188 L 1.207031 -4.117188 C 0.929688 -4.117188 0.773438 -4.128906 0.632812 -4.148438 L 0.632812 -3.785156 C 0.816406 -3.800781 0.949219 -3.804688 1.179688 -3.804688 L 1.464844 -3.804688 C 1.644531 -3.464844 1.761719 -3.167969 1.839844 -2.890625 L 0.984375 -2.890625 C 0.65625 -2.890625 0.472656 -2.898438 0.320312 -2.921875 L 0.320312 -2.542969 C 0.476562 -2.566406 0.644531 -2.574219 0.972656 -2.574219 L 4.605469 -2.574219 C 4.933594 -2.574219 5.109375 -2.566406 5.253906 -2.542969 L 5.253906 -2.921875 C 5.117188 -2.898438 4.9375 -2.890625 4.605469 -2.890625 L 3.609375 -2.890625 C 3.746094 -3.121094 3.859375 -3.367188 4.042969 -3.804688 L 4.324219 -3.804688 C 4.566406 -3.804688 4.722656 -3.800781 4.898438 -3.785156 L 4.898438 -4.148438 C 4.75 -4.128906 4.582031 -4.117188 4.292969 -4.117188 L 2.898438 -4.117188 L 2.898438 -4.289062 C 2.898438 -4.429688 2.910156 -4.535156 2.933594 -4.667969 L 2.511719 -4.667969 C 2.535156 -4.523438 2.542969 -4.417969 2.542969 -4.289062 Z M 2.210938 -2.890625 C 2.023438 -3.417969 1.976562 -3.535156 1.84375 -3.804688 L 3.660156 -3.804688 C 3.539062 -3.457031 3.40625 -3.167969 3.246094 -2.890625 Z M 1.570312 -2.128906 C 1.390625 -2.128906 1.253906 -2.132812 1.070312 -2.148438 C 1.089844 -1.988281 1.09375 -1.859375 1.09375 -1.714844 L 1.09375 -0.078125 C 1.09375 0.105469 1.082031 0.25 1.0625 0.410156 L 1.4375 0.410156 L 1.4375 0.132812 L 4.109375 0.132812 L 4.109375 0.410156 L 4.5 0.410156 C 4.476562 0.253906 4.464844 0.109375 4.464844 -0.078125 L 4.464844 -1.714844 C 4.464844 -1.878906 4.472656 -1.988281 4.488281 -2.148438 C 4.300781 -2.132812 4.167969 -2.128906 3.984375 -2.128906 Z M 1.4375 -1.816406 L 4.109375 -1.816406 L 4.109375 -1.183594 L 1.4375 -1.183594 Z M 1.4375 -0.871094 L 4.109375 -0.871094 L 4.109375 -0.179688 L 1.4375 -0.179688 Z "/>
</g>
<g id="glyph-0-3">
<path d="M 5.34375 0.449219 C 4.878906 -0.0234375 4.695312 -0.273438 4.5 -0.699219 C 4.300781 -1.144531 4.199219 -1.605469 4.199219 -2.109375 C 4.199219 -2.617188 4.300781 -3.078125 4.5 -3.523438 C 4.695312 -3.949219 4.878906 -4.199219 5.34375 -4.671875 L 4.851562 -4.671875 C 4.433594 -4.195312 4.261719 -3.929688 4.078125 -3.476562 C 3.894531 -3.035156 3.8125 -2.59375 3.8125 -2.109375 C 3.8125 -1.628906 3.894531 -1.1875 4.078125 -0.746094 C 4.261719 -0.292969 4.433594 -0.0273438 4.851562 0.449219 Z "/>
</g>
<g id="glyph-0-4">
<path d="M 3.539062 -3.957031 L 3.539062 -4.179688 C 3.539062 -4.339844 3.550781 -4.460938 3.574219 -4.605469 L 3.144531 -4.605469 C 3.167969 -4.496094 3.179688 -4.351562 3.179688 -4.183594 L 3.179688 -3.957031 L 2.289062 -3.957031 C 2.023438 -3.957031 1.871094 -3.960938 1.746094 -3.984375 L 1.746094 -3.609375 C 1.867188 -3.632812 2.003906 -3.640625 2.277344 -3.640625 L 4.582031 -3.640625 C 4.859375 -3.640625 4.988281 -3.632812 5.121094 -3.609375 L 5.121094 -3.984375 C 5 -3.964844 4.832031 -3.957031 4.574219 -3.957031 Z M 2.003906 -2.5 C 1.753906 -2.5 1.628906 -2.503906 1.503906 -2.527344 L 1.503906 -2.148438 C 1.644531 -2.171875 1.777344 -2.179688 2.011719 -2.179688 L 4.726562 -2.179688 C 4.996094 -2.179688 5.128906 -2.171875 5.265625 -2.148438 L 5.265625 -2.527344 C 5.140625 -2.503906 4.976562 -2.5 4.722656 -2.5 L 4.039062 -2.5 C 4.246094 -2.816406 4.316406 -2.957031 4.542969 -3.449219 L 4.1875 -3.5625 C 4.039062 -3.121094 3.933594 -2.90625 3.679688 -2.5 Z M 0.859375 -0.261719 C 0.859375 0.0351562 0.851562 0.207031 0.828125 0.40625 L 1.234375 0.40625 C 1.210938 0.214844 1.207031 0.0273438 1.207031 -0.246094 L 1.207031 -3.195312 C 1.398438 -3.578125 1.5625 -3.964844 1.644531 -4.25 C 1.699219 -4.417969 1.714844 -4.464844 1.753906 -4.566406 L 1.378906 -4.671875 C 1.351562 -4.496094 1.273438 -4.207031 1.171875 -3.9375 C 0.910156 -3.261719 0.578125 -2.714844 0.121094 -2.246094 C 0.222656 -2.140625 0.261719 -2.089844 0.34375 -1.933594 C 0.582031 -2.1875 0.707031 -2.359375 0.882812 -2.683594 C 0.867188 -2.433594 0.859375 -2.253906 0.859375 -2.015625 Z M 2.226562 -3.445312 C 2.40625 -3.132812 2.5 -2.910156 2.609375 -2.554688 L 2.9375 -2.679688 C 2.800781 -3.074219 2.738281 -3.222656 2.5625 -3.5625 Z M 2.367188 0.015625 L 4.300781 0.015625 L 4.300781 0.351562 L 4.6875 0.351562 C 4.667969 0.210938 4.660156 0.0820312 4.660156 -0.117188 L 4.660156 -1.171875 C 4.660156 -1.417969 4.667969 -1.527344 4.683594 -1.660156 C 4.554688 -1.644531 4.457031 -1.640625 4.273438 -1.640625 L 2.445312 -1.640625 C 2.265625 -1.640625 2.144531 -1.644531 2 -1.660156 C 2.015625 -1.5 2.023438 -1.394531 2.023438 -1.1875 L 2.023438 -0.15625 C 2.023438 0.0703125 2.015625 0.210938 1.996094 0.351562 L 2.367188 0.351562 Z M 2.367188 -1.328125 L 4.304688 -1.328125 L 4.304688 -0.300781 L 2.367188 -0.300781 Z "/>
</g>
<g id="glyph-0-5">
<path d="M 0.707031 0.449219 C 1.121094 -0.0273438 1.292969 -0.292969 1.476562 -0.746094 C 1.660156 -1.1875 1.746094 -1.628906 1.746094 -2.109375 C 1.746094 -2.59375 1.660156 -3.035156 1.476562 -3.476562 C 1.292969 -3.929688 1.121094 -4.195312 0.707031 -4.671875 L 0.210938 -4.671875 C 0.679688 -4.207031 0.859375 -3.949219 1.054688 -3.523438 C 1.253906 -3.078125 1.355469 -2.617188 1.355469 -2.109375 C 1.355469 -1.605469 1.253906 -1.144531 1.054688 -0.699219 C 0.859375 -0.273438 0.679688 -0.015625 0.210938 0.449219 Z "/>
</g>
<g id="glyph-1-0">
<path d="M 1.644531 -3.726562 C 1.652344 -3.71875 1.65625 -3.710938 1.65625 -3.707031 C 1.65625 -3.703125 1.65625 -3.691406 1.65625 -3.675781 L 1.65625 -0.410156 C 1.65625 -0.269531 1.695312 -0.183594 1.769531 -0.144531 C 1.84375 -0.105469 1.980469 -0.0820312 2.183594 -0.0742188 L 2.183594 0 L 0.652344 0 L 0.652344 -0.0820312 C 0.871094 -0.09375 1.015625 -0.121094 1.082031 -0.171875 C 1.148438 -0.21875 1.183594 -0.324219 1.183594 -0.488281 L 1.183594 -3 C 1.183594 -3.085938 1.171875 -3.152344 1.148438 -3.199219 C 1.128906 -3.242188 1.082031 -3.265625 1.007812 -3.265625 C 0.960938 -3.265625 0.902344 -3.253906 0.824219 -3.226562 C 0.75 -3.199219 0.679688 -3.171875 0.617188 -3.144531 L 0.617188 -3.21875 L 1.613281 -3.726562 Z "/>
</g>
</g>
</defs>
<g fill="rgb(100%, 100%, 0%)" fill-opacity="1">
<use xlink:href="#glyph-0-0" x="30" y="24.888672"/>
</g>
<g fill="rgb(100%, 100%, 0%)" fill-opacity="1">
<use xlink:href="#glyph-0-1" x="36" y="24.888672"/>
</g>
<g fill="rgb(100%, 100%, 0%)" fill-opacity="1">
<use xlink:href="#glyph-0-2" x="42" y="24.888672"/>
<use xlink:href="#glyph-0-3" x="48" y="24.888672"/>
<use xlink:href="#glyph-0-4" x="54" y="24.888672"/>
<use xlink:href="#glyph-0-2" x="60" y="24.888672"/>
</g>
<g fill="rgb(100%, 100%, 0%)" fill-opacity="1">
<use xlink:href="#glyph-1-0" x="66" y="24.432617"/>
</g>
<g fill="rgb(100%, 100%, 0%)" fill-opacity="1">
<use xlink:href="#glyph-0-5" x="69" y="24.888672"/>
</g>
</svg>
