<?xml version="1.0" encoding="UTF-8"?>
<svg xmlns="http://www.w3.org/2000/svg" xmlns:xlink="http://www.w3.org/1999/xlink" width="854" height="480" viewBox="0 0 854 480">
<defs>
<g>
<g id="glyph-0-0">
<path d="M 1.644531 -3.726562 C 1.652344 -3.71875 1.65625 -3.710938 1.65625 -3.707031 C 1.65625 -3.703125 1.65625 -3.691406 1.65625 -3.675781 L 1.65625 -0.410156 C 1.65625 -0.269531 1.695312 -0.183594 1.769531 -0.144531 C 1.84375 -0.105469 1.980469 -0.0820312 2.183594 -0.0742188 L 2.183594 0 L 0.652344 0 L 0.652344 -0.0820312 C 0.871094 -0.09375 1.015625 -0.121094 1.082031 -0.171875 C 1.148438 -0.21875 1.183594 -0.324219 1.183594 -0.488281 L 1.183594 -3 C 1.183594 -3.085938 1.171875 -3.152344 1.148438 -3.199219 C 1.128906 -3.242188 1.082031 -3.265625 1.007812 -3.265625 C 0.960938 -3.265625 0.902344 -3.253906 0.824219 -3.226562 C 0.75 -3.199219 0.679688 -3.171875 0.617188 -3.144531 L 0.617188 -3.21875 L 1.613281 -3.726562 Z "/>
</g>
<g id="glyph-0-1">
<path d="M 0.90625 0.0664062 C 0.820312 0.0664062 0.746094 0.0351562 0.6875 -0.0273438 C 0.628906 -0.0859375 0.597656 -0.160156 0.597656 -0.246094 C 0.597656 -0.328125 0.628906 -0.402344 0.6875 -0.460938 C 0.75 -0.519531 0.820312 -0.550781 0.90625 -0.550781 C 0.992188 -0.550781 1.0625 -0.519531 1.125 -0.460938 C 1.183594 -0.402344 1.210938 -0.328125 1.210938 -0.246094 C 1.210938 -0.160156 1.183594 -0.0859375 1.125 -0.0273438 C 1.066406 0.0351562 0.992188 0.0664062 0.90625 0.0664062 Z "/>
</g>
<g id="glyph-0-2">
<path d="M 2.492188 -3.675781 L 2.492188 -3.585938 L 1.316406 0.0507812 L 0.957031 0.0507812 L 2.054688 -3.265625 L 0.875 -3.265625 C 0.699219 -3.265625 0.570312 -3.238281 0.496094 -3.179688 C 0.417969 -3.121094 0.320312 -3 0.203125 -2.816406 L 0.109375 -2.859375 C 0.226562 -3.148438 0.300781 -3.328125 0.328125 -3.394531 C 0.355469 -3.460938 0.390625 -3.554688 0.4375 -3.675781 Z "/>
</g>
<g id="glyph-0-3">
<path d="M 0.234375 -2.9375 C 0.234375 -3.15625 0.3125 -3.34375 0.46875 -3.496094 C 0.621094 -3.648438 0.808594 -3.726562 1.027344 -3.726562 C 1.246094 -3.726562 1.433594 -3.652344 1.585938 -3.496094 C 1.742188 -3.34375 1.816406 -3.15625 1.816406 -2.9375 C 1.816406 -2.71875 1.742188 -2.53125 1.585938 -2.378906 C 1.433594 -2.222656 1.246094 -2.144531 1.027344 -2.144531 C 0.808594 -2.144531 0.621094 -2.222656 0.46875 -2.378906 C 0.3125 -2.53125 0.234375 -2.71875 0.234375 -2.9375 Z M 0.507812 -2.9375 C 0.507812 -2.792969 0.558594 -2.671875 0.660156 -2.570312 C 0.761719 -2.46875 0.886719 -2.417969 1.027344 -2.417969 C 1.171875 -2.417969 1.296875 -2.46875 1.398438 -2.570312 C 1.5 -2.671875 1.550781 -2.796875 1.550781 -2.9375 C 1.550781 -3.082031 1.5 -3.207031 1.398438 -3.308594 C 1.296875 -3.410156 1.171875 -3.457031 1.027344 -3.457031 C 0.886719 -3.457031 0.761719 -3.40625 0.660156 -3.308594 C 0.558594 -3.207031 0.507812 -3.082031 0.507812 -2.9375 Z "/>
</g>
</g>
</defs>
<g fill="rgb(100%, 100%, 100%)" fill-opacity="1">
<use xlink:href="#glyph-0-0" x="30" y="24.166992"/>
<use xlink:href="#glyph-0-0" x="33" y="24.166992"/>
<use xlink:href="#glyph-0-1" x="36" y="24.166992"/>
<use xlink:href="#glyph-0-2" x="37" y="24.166992"/>
<use xlink:href="#glyph-0-3" x="40" y="24.166992"/>
</g>
</svg>
